<?xml version="1.0" encoding="UTF-8" standalone="no"?>
<!-- Created with Inkscape (http://www.inkscape.org/) -->

<svg
   width="74.853317mm"
   height="26.705603mm"
   viewBox="0 0 74.853316 26.705603"
   version="1.1"
   id="svg31125"
   inkscape:version="1.1 (c68e22c387, 2021-05-23)"
   sodipodi:docname="авторизация.svg"
   xmlns:inkscape="http://www.inkscape.org/namespaces/inkscape"
   xmlns:sodipodi="http://sodipodi.sourceforge.net/DTD/sodipodi-0.dtd"
   xmlns="http://www.w3.org/2000/svg"
   xmlns:svg="http://www.w3.org/2000/svg">
  <sodipodi:namedview
     id="namedview31127"
     pagecolor="#ffffff"
     bordercolor="#666666"
     borderopacity="1.0"
     inkscape:pageshadow="2"
     inkscape:pageopacity="0.0"
     inkscape:pagecheckerboard="0"
     inkscape:document-units="mm"
     showgrid="false"
     inkscape:zoom="2.520627"
     inkscape:cx="171.78266"
     inkscape:cy="65.658268"
     inkscape:window-width="1920"
     inkscape:window-height="1051"
     inkscape:window-x="-9"
     inkscape:window-y="-9"
     inkscape:window-maximized="1"
     inkscape:current-layer="layer3" />
  <defs
     id="defs31122">
    <inkscape:path-effect
       effect="spiro"
       id="path-effect22369"
       is_visible="true"
       lpeversion="1" />
    <inkscape:path-effect
       effect="spiro"
       id="path-effect22252"
       is_visible="true"
       lpeversion="1" />
    <inkscape:path-effect
       effect="spiro"
       id="path-effect21477"
       is_visible="true"
       lpeversion="1" />
    <inkscape:path-effect
       effect="spiro"
       id="path-effect5010"
       is_visible="true"
       lpeversion="1" />
    <inkscape:path-effect
       effect="spiro"
       id="path-effect4080"
       is_visible="true"
       lpeversion="1" />
    <inkscape:path-effect
       effect="spiro"
       id="path-effect3576"
       is_visible="true"
       lpeversion="1" />
    <inkscape:path-effect
       effect="spiro"
       id="path-effect3539"
       is_visible="true"
       lpeversion="1" />
    <inkscape:path-effect
       effect="spiro"
       id="path-effect2979"
       is_visible="true"
       lpeversion="1" />
    <inkscape:path-effect
       effect="spiro"
       id="path-effect2975"
       is_visible="true"
       lpeversion="1" />
    <inkscape:path-effect
       effect="spiro"
       id="path-effect2431"
       is_visible="true"
       lpeversion="1" />
    <inkscape:path-effect
       effect="spiro"
       id="path-effect2115"
       is_visible="true"
       lpeversion="1" />
    <inkscape:path-effect
       effect="spiro"
       id="path-effect3479"
       is_visible="true"
       lpeversion="1" />
    <inkscape:path-effect
       effect="spiro"
       id="path-effect1173"
       is_visible="true"
       lpeversion="1" />
    <inkscape:path-effect
       effect="spiro"
       id="path-effect1136"
       is_visible="true"
       lpeversion="1" />
    <inkscape:path-effect
       effect="spiro"
       id="path-effect14657"
       is_visible="true"
       lpeversion="1" />
    <inkscape:path-effect
       effect="spiro"
       id="path-effect14661"
       is_visible="true"
       lpeversion="1" />
    <inkscape:path-effect
       effect="spiro"
       id="path-effect14665"
       is_visible="true"
       lpeversion="1" />
    <inkscape:path-effect
       effect="spiro"
       id="path-effect14669"
       is_visible="true"
       lpeversion="1" />
    <inkscape:path-effect
       effect="spiro"
       id="path-effect14673"
       is_visible="true"
       lpeversion="1" />
  </defs>
  <g
     inkscape:groupmode="layer"
     id="layer3"
     inkscape:label="Слой 3"
     transform="translate(-2.2763226,-15.14673)">
    <text
       xml:space="preserve"
       style="font-size:14.1111px;line-height:1.25;font-family:sans-serif;stroke-width:0.264583"
       x="8.4086475"
       y="35.789455"
       id="text2691"><tspan
         sodipodi:role="line"
         id="tspan2689"
         style="stroke-width:0.264583"
         x="8.4086475"
         y="35.789455" /></text>
    <rect
       style="fill:#f7f8d2;fill-opacity:1;stroke:none;stroke-width:3.08546;stroke-linecap:round;stroke-linejoin:round"
       id="rect7409"
       width="74.853317"
       height="26.705603"
       x="2.2763226"
       y="15.14673" />
    <text
       xml:space="preserve"
       style="font-size:5.64444px;line-height:1.25;font-family:Romantic;-inkscape-font-specification:Romantic;stroke-width:0.264583"
       x="56.723816"
       y="21.359842"
       id="text10485"><tspan
         sodipodi:role="line"
         id="tspan10483"
         style="font-style:normal;font-variant:normal;font-weight:normal;font-stretch:normal;font-family:'BankGothic Lt BT';-inkscape-font-specification:'BankGothic Lt BT';stroke-width:0.264583"
         x="56.723816"
         y="21.359842">auth</tspan></text>
    <text
       xml:space="preserve"
       style="font-size:5.64444px;line-height:1.25;font-family:Romantic;-inkscape-font-specification:Romantic;stroke-width:0.264583"
       x="27.459139"
       y="22.619368"
       id="text10485-2"><tspan
         sodipodi:role="line"
         id="tspan10483-1"
         style="font-style:normal;font-variant:normal;font-weight:normal;font-stretch:normal;font-family:'BankGothic Lt BT';-inkscape-font-specification:'BankGothic Lt BT';stroke-width:0.264583"
         x="27.459139"
         y="22.619368">false</tspan></text>
    <text
       xml:space="preserve"
       style="font-size:5.64444px;line-height:1.25;font-family:Romantic;-inkscape-font-specification:Romantic;stroke-width:0.264583"
       x="36.700649"
       y="36.741489"
       id="text10485-2-4"><tspan
         sodipodi:role="line"
         id="tspan10483-1-4"
         style="font-style:normal;font-variant:normal;font-weight:normal;font-stretch:normal;font-family:'BankGothic Lt BT';-inkscape-font-specification:'BankGothic Lt BT';stroke-width:0.264583"
         x="36.700649"
         y="36.741489">true</tspan></text>
  </g>
  <g
     inkscape:groupmode="layer"
     id="layer2"
     inkscape:label="Слой 2"
     style="display:inline"
     transform="translate(-2.2763226,-15.14673)" />
  <g
     inkscape:label="Слой 1"
     inkscape:groupmode="layer"
     id="layer1"
     transform="translate(-33.641682,-136.43164)"
     style="display:inline">
    <path
       id="path846-2"
       style="display:inline;fill:#a7a2ff;stroke:none;stroke-width:0.0174532;stroke-linecap:round;stroke-linejoin:round"
       d="m 101.83195,156.62232 a 2.5055938,2.5055938 0 0 0 -2.454969,2.55522 2.5055938,2.5055938 0 0 0 2.555279,2.45492 2.5055938,2.5055938 0 0 0 2.45491,-2.55523 2.5055938,2.5055938 0 0 0 -2.55522,-2.45491 z m -0.007,0.53703 a 2.003461,2.0034611 88.853021 0 1 2.04314,1.96294 2.003461,2.0034611 88.853021 0 1 -1.96295,2.04314 2.003461,2.0034611 88.853021 0 1 -2.043136,-1.96294 2.003461,2.0034611 88.853021 0 1 1.962946,-2.04314 z" />
    <path
       style="display:inline;fill:#00066c;fill-opacity:1;stroke:none;stroke-width:0.0165946;stroke-linecap:butt;stroke-linejoin:miter;stroke-miterlimit:4;stroke-dasharray:none;stroke-opacity:1"
       d="m 101.54001,159.27054 c -0.18977,-0.32463 -0.39007,-0.64312 -0.60046,-0.95478 -0.17285,-0.25605 -0.35571,-0.51095 -0.59617,-0.70491 -0.2142,-0.17278 -0.469345,-0.29212 -0.736295,-0.359 -0.287808,-0.0721 -0.59091,-0.0839 -0.882904,-0.0313 -0.308387,0.0556 -0.604575,0.18391 -0.850188,0.37851 -0.211694,0.16772 -0.383783,0.38234 -0.517627,0.61693 -0.132103,0.23154 -0.228562,0.48546 -0.263765,0.7497 -0.0425,0.31899 0.0058,0.64754 0.123122,0.94721 0.120266,0.3072 0.313302,0.58618 0.561386,0.80364 0.253226,0.22196 0.563959,0.37907 0.894242,0.44468 0.24884,0.0494 0.506909,0.0472 0.756738,0.003 0.245569,-0.0434 0.483958,-0.12716 0.702711,-0.24689 0.0585,0.0601 0.12104,0.11623 0.18717,0.1678 0.0642,0.05 0.13165,0.0958 0.20187,0.13688 -0.0347,0.0204 -0.069,0.0416 -0.10289,0.0633 -0.059,0.0378 -0.1168,0.0777 -0.17853,0.11079 -0.0961,0.0516 -0.20014,0.0861 -0.303954,0.11943 -0.17704,0.0568 -0.355767,0.11066 -0.539439,0.13947 -0.392711,0.0616 -0.79907,0.006 -1.172836,-0.12969 -0.29375,-0.10636 -0.570809,-0.2621 -0.805867,-0.46789 -0.207933,-0.18204 -0.381609,-0.40196 -0.518327,-0.64214 -0.142339,-0.25005 -0.245229,-0.52301 -0.297973,-0.80586 -0.06943,-0.37236 -0.05095,-0.76051 0.05099,-1.12531 0.09555,-0.34192 0.264252,-0.66342 0.492877,-0.93503 0.27374,-0.3252 0.632035,-0.57688 1.026873,-0.73434 0.273584,-0.10911 0.565817,-0.17387 0.860299,-0.17958 0.329681,-0.006 0.659044,0.0613 0.965588,0.18285 0.214269,0.0849 0.418629,0.19634 0.601059,0.3372 0.2671,0.20625 0.48246,0.47137 0.68271,0.743 0.19661,0.26669 0.38125,0.54222 0.55316,0.82547 l -0.29358,0.54664 z"
       id="path4560-4"
       inkscape:path-effect="#path-effect14665"
       inkscape:original-d="m 101.54001,159.27054 c 0,0 -0.40212,-0.63807 -0.60046,-0.95478 -0.19835,-0.31669 -0.39742,-0.46991 -0.59617,-0.70491 -0.19876,-0.235 -0.490838,-0.23931 -0.736295,-0.359 -0.245457,-0.1197 -0.588574,-0.0208 -0.882904,-0.0313 -0.294328,-0.0105 -0.566765,0.25237 -0.850188,0.37851 -0.283425,0.12614 -0.345058,0.41131 -0.517627,0.61693 -0.172569,0.20562 -0.175816,0.49982 -0.263765,0.7497 -0.08795,0.24987 0.08211,0.6315 0.123122,0.94721 0.04102,0.31571 0.374284,0.53578 0.561386,0.80364 0.187101,0.26785 0.596188,0.29648 0.894242,0.44468 0.298053,0.1482 0.504519,0.002 0.756738,0.003 0.252219,7.7e-4 0.702711,-0.24689 0.702711,-0.24689 0,0 0.12481,0.1119 0.18717,0.1678 0.0624,0.0559 0.20187,0.13688 0.20187,0.13688 0,0 -0.0686,0.0422 -0.10289,0.0633 -0.0343,0.0211 -0.11899,0.0739 -0.17853,0.11079 -0.0595,0.0369 -0.20261,0.0796 -0.303954,0.11943 -0.101344,0.0398 -0.359599,0.093 -0.539439,0.13947 -0.179841,0.0464 -0.781864,-0.0864 -1.172836,-0.12969 -0.390974,-0.0433 -0.537218,-0.31191 -0.805867,-0.46789 -0.26865,-0.15599 -0.345525,-0.42807 -0.518327,-0.64214 -0.172803,-0.21408 -0.198622,-0.53721 -0.297973,-0.80586 -0.09935,-0.26863 0.03402,-0.75017 0.05099,-1.12531 0.01697,-0.37512 0.328612,-0.62332 0.492877,-0.93503 0.164266,-0.3117 0.684609,-0.48953 1.026873,-0.73434 0.342263,-0.2448 0.573561,-0.11969 0.860299,-0.17958 0.28674,-0.0599 0.643753,0.12193 0.965588,0.18285 0.321829,0.0609 0.400729,0.22483 0.601059,0.3372 0.20033,0.11238 0.45517,0.49536 0.68271,0.743 0.22754,0.24765 0.55316,0.82547 0.55316,0.82547 0,0 -0.36302,0.34422 -0.29358,0.54664 z"
       sodipodi:nodetypes="sssssssssssccscssssssssssssssscs" />
    <path
       style="display:inline;fill:#a7a2ff;fill-opacity:1;stroke:none;stroke-width:0.0165946;stroke-linecap:butt;stroke-linejoin:miter;stroke-miterlimit:4;stroke-dasharray:none;stroke-opacity:1"
       d="m 102.34509,157.21541 c 0.0622,0.0125 0.12351,0.0295 0.18327,0.0508 0.0633,0.0226 0.12483,0.05 0.1857,0.0786 0.0596,0.028 0.11867,0.0571 0.17716,0.0874 -0.004,0.0182 -0.008,0.0364 -0.0119,0.0544 -0.0249,0.10283 -0.0625,0.20205 -0.10012,0.30094 -0.12876,0.33884 -0.258,0.67825 -0.41966,1.00269 -0.12195,0.24474 -0.26186,0.48001 -0.3994,0.71634 -0.13556,0.23293 -0.28508,0.45774 -0.45674,0.6655 l -0.61333,0.74228 c -0.0832,-0.0506 -0.16387,-0.10541 -0.24157,-0.16412 -0.054,-0.0408 -0.10656,-0.0835 -0.15757,-0.12794 0.0116,-0.0109 0.0228,-0.0221 0.0338,-0.0336 0.0293,-0.0307 0.0563,-0.0633 0.084,-0.0954 0.0808,-0.0936 0.16698,-0.18233 0.24793,-0.27574 0.10932,-0.12615 0.20876,-0.26049 0.30617,-0.39604 0.13009,-0.18102 0.2569,-0.36464 0.37166,-0.55575 0.13595,-0.2264 0.25469,-0.46286 0.36127,-0.70448 0.17396,-0.39438 0.31577,-0.80313 0.41962,-1.22148 0.0103,-0.0414 0.0202,-0.0829 0.0297,-0.1244 z"
       id="path9194-0"
       inkscape:path-effect="#path-effect14669"
       inkscape:original-d="m 102.34509,157.21541 c 0,0 0.12221,0.0339 0.18327,0.0508 0.0611,0.0169 0.12383,0.0524 0.1857,0.0786 0.0619,0.0262 0.17716,0.0874 0.17716,0.0874 0,0 -0.008,0.0363 -0.0119,0.0544 -0.004,0.0181 -0.0667,0.20066 -0.10012,0.30094 -0.0334,0.10029 -0.27975,0.66848 -0.41966,1.00269 -0.13991,0.3342 -0.26624,0.47759 -0.3994,0.71634 -0.13316,0.23875 -0.45674,0.6655 -0.45674,0.6655 l -0.61333,0.74228 c 0,0 -0.16102,-0.10939 -0.24157,-0.16412 -0.0806,-0.0548 -0.15757,-0.12794 -0.15757,-0.12794 0,0 0.0226,-0.0224 0.0338,-0.0336 0.0112,-0.0112 0.056,-0.0636 0.084,-0.0954 0.028,-0.0319 0.16531,-0.1838 0.24793,-0.27574 0.0826,-0.0919 0.20414,-0.264 0.30617,-0.39604 0.10202,-0.13204 0.2478,-0.37047 0.37166,-0.55575 0.12386,-0.18527 0.24087,-0.46963 0.36127,-0.70448 0.1204,-0.23486 0.27977,-0.81429 0.41962,-1.22148 0.13984,-0.40718 0.0297,-0.1244 0.0297,-0.1244 z"
       sodipodi:nodetypes="csscssssccscsssssssc" />
    <path
       style="display:inline;fill:#00066c;fill-opacity:1;stroke:none;stroke-width:0.02661px;stroke-linecap:butt;stroke-linejoin:miter;stroke-opacity:1"
       d="m 102.13359,159.19864 c 0.16983,0.28574 0.32825,0.57825 0.47477,0.87661 0.12607,0.25673 0.24333,0.51779 0.3515,0.78256 -0.0558,0.0355 -0.11305,0.0688 -0.17147,0.0999 -0.0642,0.0342 -0.13001,0.0656 -0.19806,0.0913 -0.0526,0.0199 -0.10659,0.0363 -0.16138,0.0492 -0.004,-0.0114 -0.008,-0.0229 -0.0122,-0.0342 -0.0155,-0.0417 -0.0329,-0.0828 -0.05,-0.12384 -0.0301,-0.0722 -0.0594,-0.14469 -0.0886,-0.21725 -0.0988,-0.24567 -0.20772,-0.48727 -0.33378,-0.72013 l -0.14315,-0.26442 c 0.0552,-0.0861 0.10961,-0.17276 0.16329,-0.25984 0.0572,-0.0928 0.11353,-0.18606 0.16901,-0.27986 z"
       id="path12664-3"
       inkscape:path-effect="#path-effect14673"
       inkscape:original-d="m 102.13359,159.19864 c 0,0 0.31654,0.58443 0.47477,0.87661 0.15823,0.29216 0.3515,0.78256 0.3515,0.78256 0,0 -0.11429,0.0666 -0.17147,0.0999 -0.0572,0.0333 -0.13201,0.0609 -0.19806,0.0913 -0.066,0.0304 -0.16138,0.0492 -0.16138,0.0492 0,0 -0.008,-0.0228 -0.0122,-0.0342 -0.004,-0.0114 -0.0333,-0.0825 -0.05,-0.12384 -0.0167,-0.0413 -0.059,-0.14481 -0.0886,-0.21725 -0.0296,-0.0724 -0.33378,-0.72013 -0.33378,-0.72013 l -0.14315,-0.26442 c 0,0 0.10888,-0.17319 0.16329,-0.25984 0.0544,-0.0866 0.16901,-0.27986 0.16901,-0.27986 z"
       sodipodi:nodetypes="cscsscsssccsc" />
    <rect
       style="fill:#57ff6c;fill-opacity:1;stroke-width:1.07178;stroke-linecap:round;stroke-linejoin:round"
       id="rect1207-3"
       width="6.8236294"
       height="5.0730648"
       x="45.980675"
       y="155.43346" />
    <path
       style="fill:#57ff6c;fill-opacity:1;stroke:none;stroke-width:0.125199px;stroke-linecap:butt;stroke-linejoin:miter;stroke-opacity:1"
       d="m 46.63657,155.38712 c 0.03266,-0.97973 0.05826,-1.9607 0.01485,-2.94001 -0.01225,-0.27641 -0.02992,-0.55475 0.0088,-0.82871 0.03876,-0.27396 0.139161,-0.54747 0.332674,-0.74523 0.20827,-0.21284 0.501111,-0.31748 0.786971,-0.40091 0.482264,-0.14075 0.983564,-0.24104 1.484851,-0.20788 0.475404,0.0315 0.933565,0.18133 1.39576,0.29697 0.26167,0.0655 0.527897,0.12082 0.775034,0.2289 0.247137,0.10808 0.478167,0.27594 0.605878,0.51353 0.132278,0.24608 0.140785,0.5374 0.148485,0.81667 0.01488,0.5395 0.03799,1.07881 0.04455,1.61848 0.0069,0.56931 -0.0046,1.13878 -0.0297,1.70758 -0.0087,0.19796 -0.01912,0.39671 0,0.59394 0.01172,0.1209 0.03452,0.2413 0.0312,0.36272 -0.0017,0.0607 -0.01,0.12155 -0.02903,0.17921 -0.01907,0.0577 -0.04919,0.11214 -0.09125,0.15595 -0.04037,0.0421 -0.09129,0.0737 -0.146456,0.0925 -0.05517,0.0188 -0.114478,0.0249 -0.172471,0.0191 -0.115987,-0.0117 -0.224657,-0.0713 -0.304711,-0.15604 -0.104273,-0.11037 -0.160382,-0.25929 -0.183257,-0.40939 -0.02287,-0.15011 -0.01495,-0.30302 -0.0061,-0.4546 0.03142,-0.53828 0.07379,-1.07653 0.07057,-1.61572 -0.0032,-0.5397 -0.05212,-1.07924 -0.0297,-1.61848 0.0055,-0.13185 0.01522,-0.26399 0.0054,-0.39559 -0.0098,-0.13159 -0.04023,-0.26413 -0.109355,-0.37654 -0.0805,-0.1309 -0.209057,-0.22686 -0.348096,-0.29231 -0.13904,-0.0654 -0.289343,-0.10285 -0.438874,-0.13829 -0.430409,-0.102 -0.865469,-0.19114 -1.306669,-0.22273 -0.383728,-0.0275 -0.783958,-0.008 -1.128488,0.16333 -0.181579,0.0902 -0.345617,0.22444 -0.445455,0.40091 -0.130269,0.23026 -0.140611,0.50767 -0.133636,0.77213 0.0098,0.37033 0.04705,0.73956 0.05568,1.10992 0.0111,0.47649 -0.02522,0.95457 0.01856,1.42917 0.02375,0.25754 0.07078,0.51961 0.01485,0.77212 -0.0436,0.19686 -0.155268,0.38381 -0.326667,0.49 -0.08631,0.0535 -0.187842,0.0856 -0.289144,0.0788 -0.05065,-0.003 -0.100795,-0.0165 -0.145883,-0.0399 -0.04509,-0.0233 -0.08502,-0.057 -0.114369,-0.0984 -0.04227,-0.0597 -0.06139,-0.13317 -0.0667,-0.20609 -0.0053,-0.0729 0.0022,-0.14613 0.01146,-0.21864 0.01858,-0.14503 0.03552,-0.29035 0.0404,-0.43648 0,-1e-5 10e-7,-2e-5 10e-7,-3e-5 z"
       id="path2113-7"
       sodipodi:nodetypes="scsssssscssscsccsssssssccscss"
       inkscape:original-d="m 46.63657,155.38712 c -0.0051,-0.2872 0.01002,-1.95988 0.01485,-2.94001 0.0048,-0.98013 0.227803,-1.04917 0.341516,-1.57394 0.113713,-0.52477 0.524773,-0.26715 0.786971,-0.40091 0.262199,-0.13376 0.990026,-0.13846 1.484851,-0.20788 0.494826,-0.0694 0.930632,0.19811 1.39576,0.29697 0.465129,0.0989 0.920734,0.49508 1.380912,0.74243 0.460178,0.24735 0.09911,0.54457 0.148485,0.81667 0.04937,0.27209 0.02982,1.07911 0.04455,1.61848 0.01472,0.53937 -0.01967,1.13851 -0.0297,1.70758 -0.01003,0.56907 1.25e-4,0.39609 0,0.59394 -1.25e-4,0.19786 -0.05927,0.46538 -0.08909,0.69788 -0.02982,0.2325 -0.415635,-0.0296 -0.623638,-0.0445 -0.208005,-0.015 -0.159535,-0.56194 -0.189357,-0.86399 -0.02982,-0.30204 0.0806,-1.09094 0.07057,-1.61572 -0.01002,-0.52477 -0.01967,-1.07886 -0.0297,-1.61848 -0.01002,-0.53962 -0.06917,-0.51463 -0.10394,-0.77213 -0.03477,-0.2575 -0.524522,-0.28694 -0.78697,-0.4306 -0.26245,-0.14366 -0.870988,-0.14836 -1.306669,-0.22273 -0.435682,-0.0744 -0.7522,0.10901 -1.128488,0.16333 -0.376287,0.0543 -0.296845,0.2674 -0.445455,0.40091 -0.14861,0.13351 -0.08897,0.51488 -0.133636,0.77213 -0.04467,0.25724 0.0459,0.74873 0.05568,1.10992 0.0098,0.36119 0.0038,0.94425 0.01856,1.42917 0.01472,0.48493 0.01002,0.51487 0.01485,0.77212 0.0048,0.25725 -0.217654,0.3268 -0.326667,0.49 -0.109015,0.16321 -0.366139,-0.0395 -0.549396,-0.0594 -0.183256,-0.0199 -0.0098,-0.57402 -0.01485,-0.86121 z"
       inkscape:path-effect="#path-effect5010" />
    <ellipse
       style="fill:#ffffff;fill-opacity:1;stroke:none;stroke-width:1.07178;stroke-linecap:round;stroke-linejoin:round"
       id="path5036"
       cx="47.96154"
       cy="157.43439"
       rx="0.18857458"
       ry="0.16638935" />
    <circle
       style="fill:#ffffff;fill-opacity:1;stroke:none;stroke-width:1.07178;stroke-linecap:round;stroke-linejoin:round"
       id="path5038"
       cx="51.12294"
       cy="157.31238"
       r="0.19966722" />
    <ellipse
       style="fill:#ffffff;fill-opacity:1;stroke:none;stroke-width:1.07178;stroke-linecap:round;stroke-linejoin:round"
       id="path5040"
       cx="49.891663"
       cy="158.98737"
       rx="0.18857458"
       ry="0.1442041" />
    <ellipse
       style="fill:#ffffff;fill-opacity:1;stroke:none;stroke-width:1.07178;stroke-linecap:round;stroke-linejoin:round"
       id="path5042"
       cx="48.183395"
       cy="159.60855"
       rx="0.16638935"
       ry="0.12201886" />
    <ellipse
       style="fill:#ffffff;fill-opacity:1;stroke:none;stroke-width:1.07178;stroke-linecap:round;stroke-linejoin:round"
       id="path5044"
       cx="49.337029"
       cy="156.61354"
       rx="0.21075985"
       ry="0.18857458" />
    <rect
       style="display:inline;fill:#ff1300;fill-opacity:1;stroke-width:1.07178;stroke-linecap:round;stroke-linejoin:round"
       id="rect1207-3-0"
       width="6.8236294"
       height="5.0730648"
       x="45.883747"
       y="142.85182" />
    <path
       style="display:inline;fill:#ff1300;fill-opacity:1;stroke:none;stroke-width:0.125199px;stroke-linecap:butt;stroke-linejoin:miter;stroke-opacity:1"
       d="m 46.539643,142.80547 c 0.03266,-0.97973 0.05826,-1.9607 0.01485,-2.94001 -0.01225,-0.27641 -0.02992,-0.55475 0.0088,-0.82871 0.03876,-0.27396 0.139161,-0.54747 0.332674,-0.74523 0.20827,-0.21284 0.501111,-0.31748 0.786971,-0.40091 0.482264,-0.14075 0.983564,-0.24104 1.484851,-0.20788 0.475404,0.0315 0.933565,0.18133 1.39576,0.29697 0.26167,0.0655 0.527897,0.12082 0.775034,0.2289 0.247137,0.10808 0.478167,0.27594 0.605878,0.51353 0.132278,0.24608 0.140785,0.5374 0.148485,0.81667 0.01488,0.5395 0.03799,1.07881 0.04455,1.61848 0.0069,0.56931 -0.0046,1.13878 -0.0297,1.70758 -0.0087,0.19796 -0.01912,0.39671 0,0.59394 0.01172,0.1209 0.03452,0.2413 0.0312,0.36272 -0.0017,0.0607 -0.01,0.12155 -0.02903,0.17921 -0.01907,0.0577 -0.04919,0.11214 -0.09125,0.15595 -0.04037,0.0421 -0.09129,0.0737 -0.146456,0.0925 -0.05517,0.0188 -0.114478,0.0249 -0.172471,0.0191 -0.115987,-0.0117 -0.224657,-0.0713 -0.304711,-0.15604 -0.104273,-0.11037 -0.160382,-0.25929 -0.183257,-0.40939 -0.02287,-0.15011 -0.01495,-0.30302 -0.0061,-0.4546 0.03142,-0.53828 0.07379,-1.07653 0.07057,-1.61572 -0.0032,-0.5397 -0.05212,-1.07924 -0.0297,-1.61848 0.0055,-0.13185 0.01522,-0.26399 0.0054,-0.39559 -0.0098,-0.13159 -0.04023,-0.26413 -0.109355,-0.37654 -0.0805,-0.1309 -0.209057,-0.22686 -0.348096,-0.29231 -0.13904,-0.0654 -0.289343,-0.10285 -0.438874,-0.13829 -0.430409,-0.102 -0.865469,-0.19114 -1.306669,-0.22273 -0.383728,-0.0275 -0.783958,-0.008 -1.128488,0.16333 -0.181579,0.0902 -0.345617,0.22444 -0.445455,0.40091 -0.130269,0.23026 -0.140611,0.50767 -0.133636,0.77213 0.0098,0.37033 0.04705,0.73956 0.05568,1.10992 0.0111,0.47649 -0.02522,0.95457 0.01856,1.42917 0.02375,0.25754 0.07078,0.51961 0.01485,0.77212 -0.0436,0.19686 -0.155268,0.38381 -0.326667,0.49 -0.08631,0.0535 -0.187842,0.0856 -0.289144,0.0788 -0.05065,-0.003 -0.100795,-0.0165 -0.145883,-0.0399 -0.04509,-0.0233 -0.08502,-0.057 -0.114369,-0.0984 -0.04227,-0.0597 -0.06139,-0.13317 -0.0667,-0.20609 -0.0053,-0.0729 0.0022,-0.14613 0.01146,-0.21864 0.01858,-0.14503 0.03552,-0.29035 0.0404,-0.43648 0,-1e-5 10e-7,-2e-5 10e-7,-3e-5 z"
       id="path2113-7-7"
       sodipodi:nodetypes="scsssssscssscsccsssssssccscss"
       inkscape:original-d="m 46.539643,142.80547 c -0.0051,-0.2872 0.01002,-1.95988 0.01485,-2.94001 0.0048,-0.98013 0.227803,-1.04917 0.341516,-1.57394 0.113713,-0.52477 0.524773,-0.26715 0.786971,-0.40091 0.262199,-0.13376 0.990026,-0.13846 1.484851,-0.20788 0.494826,-0.0694 0.930632,0.19811 1.39576,0.29697 0.465129,0.0989 0.920734,0.49508 1.380912,0.74243 0.460178,0.24735 0.09911,0.54457 0.148485,0.81667 0.04937,0.27209 0.02982,1.07911 0.04455,1.61848 0.01472,0.53937 -0.01967,1.13851 -0.0297,1.70758 -0.01003,0.56907 1.25e-4,0.39609 0,0.59394 -1.25e-4,0.19786 -0.05927,0.46538 -0.08909,0.69788 -0.02982,0.2325 -0.415635,-0.0296 -0.623638,-0.0445 -0.208005,-0.015 -0.159535,-0.56194 -0.189357,-0.86399 -0.02982,-0.30204 0.0806,-1.09094 0.07057,-1.61572 -0.01002,-0.52477 -0.01967,-1.07886 -0.0297,-1.61848 -0.01002,-0.53962 -0.06917,-0.51463 -0.10394,-0.77213 -0.03477,-0.2575 -0.524522,-0.28694 -0.78697,-0.4306 -0.26245,-0.14366 -0.870988,-0.14836 -1.306669,-0.22273 -0.435682,-0.0744 -0.7522,0.10901 -1.128488,0.16333 -0.376287,0.0543 -0.296845,0.2674 -0.445455,0.40091 -0.14861,0.13351 -0.08897,0.51488 -0.133636,0.77213 -0.04467,0.25724 0.0459,0.74873 0.05568,1.10992 0.0098,0.36119 0.0038,0.94425 0.01856,1.42917 0.01472,0.48493 0.01002,0.51487 0.01485,0.77212 0.0048,0.25725 -0.217654,0.3268 -0.326667,0.49 -0.109015,0.16321 -0.366139,-0.0395 -0.549396,-0.0594 -0.183256,-0.0199 -0.0098,-0.57402 -0.01485,-0.86121 z"
       inkscape:path-effect="#path-effect21477" />
    <ellipse
       style="display:inline;fill:#ffffff;fill-opacity:1;stroke:none;stroke-width:1.07178;stroke-linecap:round;stroke-linejoin:round"
       id="path5036-1"
       cx="47.864613"
       cy="144.85275"
       rx="0.18857458"
       ry="0.16638935" />
    <circle
       style="display:inline;fill:#ffffff;fill-opacity:1;stroke:none;stroke-width:1.07178;stroke-linecap:round;stroke-linejoin:round"
       id="path5038-0"
       cx="51.026012"
       cy="144.73074"
       r="0.19966722" />
    <ellipse
       style="display:inline;fill:#ffffff;fill-opacity:1;stroke:none;stroke-width:1.07178;stroke-linecap:round;stroke-linejoin:round"
       id="path5040-6"
       cx="49.794735"
       cy="146.40573"
       rx="0.18857458"
       ry="0.1442041" />
    <ellipse
       style="display:inline;fill:#ffffff;fill-opacity:1;stroke:none;stroke-width:1.07178;stroke-linecap:round;stroke-linejoin:round"
       id="path5042-9"
       cx="48.086468"
       cy="147.02692"
       rx="0.16638935"
       ry="0.12201886" />
    <ellipse
       style="display:inline;fill:#ffffff;fill-opacity:1;stroke:none;stroke-width:1.07178;stroke-linecap:round;stroke-linejoin:round"
       id="path5044-8"
       cx="49.240101"
       cy="144.03191"
       rx="0.21075985"
       ry="0.18857458" />
    <circle
       style="fill:#0058ff;fill-opacity:1;stroke:none;stroke-width:2.265;stroke-linecap:round;stroke-linejoin:round"
       id="path21724"
       cx="38.659096"
       cy="147.27121"
       r="1.0982038" />
    <rect
       style="fill:#0058ff;fill-opacity:1;stroke:none;stroke-width:2.265;stroke-linecap:round;stroke-linejoin:round"
       id="rect21748"
       width="5.3775544"
       height="3.3235116"
       x="35.913586"
       y="148.62952"
       ry="1.2427043" />
    <rect
       style="fill:#0058ff;fill-opacity:1;stroke:none;stroke-width:2.265;stroke-linecap:round;stroke-linejoin:round"
       id="rect21973"
       width="5.4043198"
       height="2.0519187"
       x="35.913586"
       y="149.90111" />
    <path
       style="fill:none;stroke:#000000;stroke-width:0.264583px;stroke-linecap:butt;stroke-linejoin:miter;stroke-opacity:1"
       d="m 40.47197,148.38084 c 0.08363,-0.24982 0.246634,-0.47239 0.459565,-0.62751 0.212931,-0.15512 0.474768,-0.24203 0.738192,-0.24504 0.311792,-0.004 0.612013,0.10604 0.909416,0.19973 0.297404,0.0937 0.613264,0.17328 0.918332,0.10878 0.250847,-0.053 0.471272,-0.19903 0.676372,-0.35289 0.205099,-0.15385 0.404768,-0.32038 0.638656,-0.42542 0.214013,-0.0961 0.452475,-0.13718 0.686311,-0.1182"
       id="path22250"
       inkscape:path-effect="#path-effect22252"
       inkscape:original-d="m 40.47197,148.38084 c -0.03537,0.10457 1.07191,-0.49867 1.197757,-0.87255 0.12585,-0.37389 1.218847,0.20582 1.827748,0.30851 0.608904,0.1027 0.877031,-0.51873 1.315028,-0.77831 0.437982,-0.25961 0.457888,-0.0787 0.686311,-0.1182"
       sodipodi:nodetypes="csccc" />
    <path
       style="fill:none;stroke:#000000;stroke-width:0.264583px;stroke-linecap:butt;stroke-linejoin:miter;stroke-opacity:1"
       d="m 40.197654,152.2486 c -0.166693,0.25258 -0.265299,0.54963 -0.282735,0.85176 -0.01744,0.30212 0.04634,0.60855 0.18287,0.87862 0.136528,0.27008 0.345465,0.50313 0.599089,0.66822 0.253623,0.1651 0.551295,0.26183 0.853521,0.27736 0.404138,0.0208 0.800564,-0.10017 1.201968,-0.15149 0.200702,-0.0257 0.405463,-0.0338 0.604639,0.002 0.199177,0.0356 0.39336,0.11716 0.542333,0.25408 0.10893,0.10012 0.190914,0.22694 0.252348,0.36153 0.06143,0.13459 0.103112,0.2773 0.139738,0.42064 0.07325,0.28669 0.12984,0.58496 0.286497,0.83599 0.114303,0.18316 0.279477,0.33379 0.471142,0.43318 0.191665,0.0994 0.40923,0.14754 0.62503,0.14101 0.380818,-0.0115 0.734224,-0.18666 1.085,-0.33535 0.175389,-0.0744 0.354214,-0.14315 0.540589,-0.18256 0.186374,-0.0394 0.381544,-0.0486 0.566755,-0.004 0.174676,0.042 0.335511,0.13063 0.478978,0.23877 0.143466,0.10815 0.270899,0.23585 0.396159,0.36465 0.250519,0.25759 0.508283,0.53061 0.847419,0.64935 0.335518,0.11747 0.706157,0.0669 1.050624,-0.0209 0.344467,-0.0878 0.682944,-0.21204 1.037323,-0.24009 0.489381,-0.0387 0.972646,0.10821 1.438976,0.26161 0.466331,0.1534 0.941058,0.31686 1.431951,0.31258 0.625514,-0.005 1.211885,-0.28126 1.787504,-0.52613 0.287809,-0.12243 0.579644,-0.2388 0.883715,-0.31205 0.30407,-0.0733 0.622289,-0.10247 0.930489,-0.0492 0.405079,0.07 0.771564,0.27718 1.126589,0.48441 0.355025,0.20724 0.715997,0.42123 1.117955,0.50737 0.474516,0.10169 0.9702,0.0166 1.435144,-0.12242 0.464945,-0.13904 0.913418,-0.33156 1.383583,-0.45177 1.288667,-0.32948 2.714799,-0.0755 3.810503,0.67858"
       id="path22367"
       inkscape:path-effect="#path-effect22369"
       inkscape:original-d="m 40.197654,152.2486 c 0.103656,1.05551 1.249618,1.62099 1.352745,2.67596 0.103126,1.05498 1.566224,0.0699 2.34894,0.1044 0.782715,0.0345 0.452653,1.07904 0.678583,1.61816 0.225929,0.53912 0.731046,0.38306 1.096172,0.57419 0.365126,0.19113 1.461827,-0.34773 2.192344,-0.52199 0.730517,-0.17426 1.148635,0.83544 1.722556,1.25277 0.573921,0.41732 1.392229,-0.17373 2.087947,-0.261 0.695718,-0.0873 1.914216,0.38306 2.870927,0.57419 0.956711,0.19113 2.401403,-0.59132 3.601708,-0.88738 1.200305,-0.29606 1.496627,0.66145 2.244544,0.99178 0.747916,0.33032 1.879417,-0.38253 2.818727,-0.57419 0.939311,-0.19166 2.540601,0.45265 3.810503,0.67858"
       sodipodi:nodetypes="csssssccsscsc" />
  </g>
</svg>
