<?xml version="1.0" encoding="UTF-8" standalone="no"?>
<!-- Created with Inkscape (http://www.inkscape.org/) -->

<svg
   width="72.867805mm"
   height="25.841805mm"
   viewBox="0 0 72.867805 25.841804"
   version="1.1"
   id="svg31125"
   inkscape:version="1.1.1 (3bf5ae0d25, 2021-09-20)"
   sodipodi:docname="fish.svg"
   xmlns:inkscape="http://www.inkscape.org/namespaces/inkscape"
   xmlns:sodipodi="http://sodipodi.sourceforge.net/DTD/sodipodi-0.dtd"
   xmlns="http://www.w3.org/2000/svg"
   xmlns:svg="http://www.w3.org/2000/svg">
  <sodipodi:namedview
     id="namedview31127"
     pagecolor="#ffffff"
     bordercolor="#666666"
     borderopacity="1.0"
     inkscape:pageshadow="2"
     inkscape:pageopacity="0.0"
     inkscape:pagecheckerboard="0"
     inkscape:document-units="mm"
     showgrid="false"
     inkscape:zoom="2.7439392"
     inkscape:cx="140.12701"
     inkscape:cy="59.221429"
     inkscape:window-width="1440"
     inkscape:window-height="877"
     inkscape:window-x="-8"
     inkscape:window-y="-8"
     inkscape:window-maximized="1"
     inkscape:current-layer="layer3" />
  <defs
     id="defs31122">
    <inkscape:path-effect
       effect="spiro"
       id="path-effect18964"
       is_visible="true"
       lpeversion="1" />
    <inkscape:path-effect
       effect="spiro"
       id="path-effect18945"
       is_visible="true"
       lpeversion="1" />
    <inkscape:path-effect
       effect="spiro"
       id="path-effect18916"
       is_visible="true"
       lpeversion="1" />
    <inkscape:path-effect
       effect="spiro"
       id="path-effect18887"
       is_visible="true"
       lpeversion="1" />
    <inkscape:path-effect
       effect="spiro"
       id="path-effect18858"
       is_visible="true"
       lpeversion="1" />
    <inkscape:path-effect
       effect="spiro"
       id="path-effect18839"
       is_visible="true"
       lpeversion="1" />
    <inkscape:path-effect
       effect="spiro"
       id="path-effect18164"
       is_visible="true"
       lpeversion="1" />
    <inkscape:path-effect
       effect="spiro"
       id="path-effect3479"
       is_visible="true"
       lpeversion="1" />
    <inkscape:path-effect
       effect="spiro"
       id="path-effect1173"
       is_visible="true"
       lpeversion="1" />
    <inkscape:path-effect
       effect="spiro"
       id="path-effect1136"
       is_visible="true"
       lpeversion="1" />
    <inkscape:path-effect
       effect="spiro"
       id="path-effect14657"
       is_visible="true"
       lpeversion="1" />
    <inkscape:path-effect
       effect="spiro"
       id="path-effect14661"
       is_visible="true"
       lpeversion="1" />
    <inkscape:path-effect
       effect="spiro"
       id="path-effect14665"
       is_visible="true"
       lpeversion="1" />
    <inkscape:path-effect
       effect="spiro"
       id="path-effect14669"
       is_visible="true"
       lpeversion="1" />
    <inkscape:path-effect
       effect="spiro"
       id="path-effect14673"
       is_visible="true"
       lpeversion="1" />
  </defs>
  <g
     inkscape:groupmode="layer"
     id="layer3"
     inkscape:label="Слой 3"
     transform="translate(-3.6465616,-15.032231)">
    <text
       xml:space="preserve"
       style="font-size:14.1111px;line-height:1.25;font-family:sans-serif;stroke-width:0.264583"
       x="8.4086475"
       y="35.789455"
       id="text2691"><tspan
         sodipodi:role="line"
         id="tspan2689"
         style="stroke-width:0.264583"
         x="8.4086475"
         y="35.789455" /></text>
    <path
       style="fill:#caffeb;fill-opacity:1;stroke:none;stroke-width:0.264583px;stroke-linecap:butt;stroke-linejoin:miter;stroke-opacity:1"
       d="M 4.0994663,34.702858 C 2.5569367,26.507028 5.449411,19.467764 5.449411,19.467764 l 2.6034651,-2.314191 7.2318479,-0.192849 4.917656,-1.349945 19.959899,0.482123 3.76056,-0.385699 7.810397,-0.674972 10.02816,1.349945 3.856988,-0.674973 8.485367,0.674973 1.639218,-0.578548 0.385699,6.749724 0.385699,6.749725 -0.289277,5.399781 -26.90247,2.603463 -45.2231537,-2.603463"
       id="path19000" />
    <rect
       style="fill:#9c8c8b;fill-opacity:1;stroke-width:0.389001"
       id="rect16926"
       width="72.125626"
       height="6.1711769"
       x="4.0994663"
       y="34.702858" />
    <circle
       style="display:inline;fill:#65cdff;fill-opacity:1;stroke-width:0.389001"
       id="path16227"
       cx="95.19989"
       cy="148.99698"
       transform="translate(-31.365359,-121.28491)"
       r="9.5942516" />
    <path
       style="fill:#12f629;fill-opacity:1;stroke:none;stroke-width:0.264583px;stroke-linecap:butt;stroke-linejoin:miter;stroke-opacity:1"
       d="m 60.584948,34.716414 c -0.797395,-0.49818 -1.341554,-1.38132 -1.427998,-2.317563 -0.03661,-0.396457 0.0043,-0.795356 0.0188,-1.193234 0.01453,-0.397878 0.001,-0.805422 -0.138166,-1.178435 -0.158316,-0.424202 -0.466242,-0.771824 -0.745426,-1.12829 -0.139592,-0.178232 -0.273883,-0.361811 -0.38041,-0.561573 -0.106526,-0.199763 -0.184999,-0.416964 -0.206846,-0.642298 -0.04243,-0.437686 0.130122,-0.868426 0.346771,-1.251091 0.21665,-0.382665 0.48141,-0.740126 0.651856,-1.145487 0.317338,-0.754705 0.272143,-1.652641 -0.119372,-2.371668 0.185851,0.338947 0.353337,0.687964 0.501476,1.045008 0.166979,0.402451 0.310053,0.817806 0.376455,1.248433 0.0664,0.430627 0.05373,0.878895 -0.08491,1.291965 -0.0808,0.240724 -0.202546,0.465338 -0.301669,0.699114 -0.09912,0.233775 -0.176614,0.484005 -0.16115,0.737456 0.01257,0.206016 0.08643,0.404605 0.187168,0.58475 0.100738,0.180145 0.228069,0.343813 0.355822,0.505923 0.127753,0.16211 0.256914,0.324111 0.361888,0.501822 0.104974,0.17771 0.185678,0.373048 0.207984,0.578238 0.02359,0.216959 -0.01881,0.436176 -0.08225,0.644988 -0.06344,0.208812 -0.147914,0.410751 -0.211837,0.619416 -0.176609,0.576511 -0.191307,1.20169 -0.04199,1.785864 0.149321,0.584173 0.462221,1.125615 0.893817,1.546662 z"
       id="path18162"
       inkscape:path-effect="#path-effect18164"
       inkscape:original-d="m 60.584948,34.716414 c 0.283641,1.11062 -0.951697,-1.544821 -1.427998,-2.317563 -0.4763,-0.772742 -0.07928,-1.580891 -0.11937,-2.371669 -0.04009,-0.790777 -0.888156,-1.554553 -1.332682,-2.332161 -0.44453,-0.777609 0.666051,-1.597497 0.998627,-2.396578 0.332574,-0.79908 -0.119372,-2.371668 -0.119372,-2.371668 -0.04009,-0.790778 0.334619,0.696893 0.501476,1.045008 0.166856,0.348115 0.194658,1.69382 0.291541,2.540398 0.09687,0.846578 -0.308244,0.957935 -0.462819,1.43657 -0.154575,0.478636 0.742209,1.447376 1.112862,2.170733 0.370652,0.723355 -0.195759,0.843158 -0.294091,1.264404 -0.09833,0.421248 0.568189,2.221906 0.851831,3.332526 z"
       sodipodi:nodetypes="sssssssssssss" />
    <path
       style="fill:#12f629;fill-opacity:1;stroke:none;stroke-width:0.245893px;stroke-linecap:butt;stroke-linejoin:miter;stroke-opacity:1"
       d="m 63.660515,36.42922 c 0.646086,-0.641054 1.018133,-1.549685 1.007176,-2.459772 -0.0048,-0.397429 -0.07891,-0.790242 -0.129945,-1.18441 -0.05103,-0.394168 -0.07862,-0.798305 0.0085,-1.186096 0.097,-0.431719 0.329879,-0.818091 0.536672,-1.209277 0.206794,-0.391186 0.394332,-0.812161 0.387293,-1.254586 -0.0068,-0.424831 -0.193066,-0.826571 -0.415049,-1.188855 -0.221984,-0.362285 -0.483854,-0.701572 -0.668576,-1.0842 -0.353264,-0.731739 -0.398075,-1.606498 -0.121433,-2.370505 -0.127356,0.359161 -0.238137,0.724199 -0.331871,1.093563 -0.106633,0.420194 -0.191461,0.84812 -0.208195,1.28131 -0.01673,0.433191 0.03643,0.87335 0.197745,1.275734 0.09225,0.230121 0.218387,0.444896 0.325559,0.668459 0.107171,0.223563 0.196535,0.461227 0.207419,0.708911 0.0089,0.202121 -0.03511,0.40382 -0.104297,0.593937 -0.06919,0.190117 -0.163249,0.370063 -0.258001,0.548819 -0.189504,0.357514 -0.388025,0.731985 -0.388185,1.136618 -8.5e-5,0.214739 0.05657,0.425823 0.130804,0.627324 0.07423,0.2015 0.166275,0.396059 0.24106,0.597355 0.413848,1.113936 0.253513,2.424371 -0.416691,3.405671 z"
       id="path18162-8"
       inkscape:path-effect="#path-effect18839"
       inkscape:original-d="m 63.660515,36.42922 c -0.138657,1.134969 0.671213,-1.639596 1.007176,-2.459772 0.335963,-0.820177 -0.08119,-1.580084 -0.121434,-2.370506 -0.04024,-0.79042 0.615741,-1.642323 0.923965,-2.463863 0.308228,-0.821541 -0.722652,-1.515117 -1.083625,-2.273055 -0.36097,-0.757937 -0.121433,-2.370505 -0.121433,-2.370505 -0.04024,-0.790421 -0.221485,0.729295 -0.331871,1.093563 -0.110385,0.364269 -0.0072,1.704949 -0.01045,2.557044 -0.0032,0.852094 0.355081,0.9185 0.532978,1.37737 0.177898,0.458871 -0.50056,1.519835 -0.750483,2.279374 -0.249924,0.759537 0.247671,0.816706 0.371864,1.224679 0.124191,0.407975 -0.278032,2.270701 -0.416691,3.405671 z"
       sodipodi:nodetypes="sssssssssssss" />
    <path
       style="fill:#12f629;fill-opacity:1;stroke:none;stroke-width:0.190782px;stroke-linecap:butt;stroke-linejoin:miter;stroke-opacity:1"
       d="m 66.694065,36.559418 c 0.553303,-0.604887 0.95111,-1.350848 1.145134,-2.147332 0.18754,-0.769868 0.189293,-1.587317 0.485391,-2.322296 0.152015,-0.377333 0.376853,-0.719956 0.588247,-1.067521 0.211393,-0.347566 0.412904,-0.708177 0.510739,-1.10304 0.0988,-0.398762 0.08776,-0.816633 0.04681,-1.225407 -0.04094,-0.408774 -0.111142,-0.814962 -0.128884,-1.225398 -0.03451,-0.798329 0.134016,-1.604622 0.485391,-2.322296 -0.15764,0.322615 -0.305561,0.649979 -0.443495,0.981498 -0.328036,0.78842 -0.602645,1.618349 -0.603648,2.472288 -5.72e-4,0.486993 0.08744,0.981509 -0.02026,1.456444 -0.08315,0.366687 -0.277915,0.69686 -0.471994,1.018896 -0.194079,0.322036 -0.392899,0.648916 -0.485662,1.01329 -0.105028,0.412553 -0.06747,0.845729 -0.07578,1.27136 -0.0222,1.13653 -0.385927,2.264207 -1.031986,3.199515 z"
       id="path18162-3"
       inkscape:path-effect="#path-effect18858"
       inkscape:original-d="m 66.694065,36.559418 c -0.3438,1.066314 0.76323,-1.431365 1.145134,-2.147332 0.381905,-0.715966 0.323397,-1.548008 0.485391,-2.322296 0.161994,-0.774288 0.732465,-1.446851 1.098986,-2.170561 0.366524,-0.72371 -0.05491,-1.63368 -0.08207,-2.450805 -0.02716,-0.817124 0.485391,-2.322296 0.485391,-2.322296 0.161994,-0.774288 -0.295857,0.654521 -0.443495,0.981498 -0.147632,0.326977 -0.402624,1.648382 -0.603648,2.472288 -0.201021,0.823907 -0.0137,0.971153 -0.02026,1.456444 -0.0066,0.485293 -0.638632,1.35498 -0.957656,2.032186 -0.319025,0.677204 -0.05071,0.847764 -0.07578,1.27136 -0.02506,0.423599 -0.688185,2.1332 -1.031986,3.199515 z"
       sodipodi:nodetypes="sssssssssssss" />
    <path
       style="fill:#12f629;fill-opacity:1;stroke:none;stroke-width:0.105843px;stroke-linecap:butt;stroke-linejoin:miter;stroke-opacity:1"
       d="m 60.869954,36.793578 c 0.390852,-0.156208 0.714967,-0.472407 0.880791,-0.859277 0.06606,-0.154122 0.107545,-0.317401 0.158639,-0.47711 0.05109,-0.159709 0.113268,-0.318656 0.214704,-0.452179 0.123662,-0.162781 0.297764,-0.278017 0.459253,-0.40336 0.16149,-0.125344 0.318994,-0.272094 0.386042,-0.465212 0.05428,-0.156351 0.04351,-0.32773 0.01622,-0.490969 -0.0273,-0.16324 -0.07049,-0.324475 -0.07934,-0.489744 -0.01841,-0.344124 0.121969,-0.693554 0.373343,-0.92929 -0.118201,0.126922 -0.231998,0.257946 -0.341118,0.392756 -0.116736,0.144219 -0.228667,0.293634 -0.314382,0.458192 -0.08571,0.164558 -0.144752,0.345647 -0.14992,0.531118 -0.0027,0.09773 0.0094,0.195188 0.01423,0.292837 0.0048,0.09765 0.0019,0.197484 -0.02981,0.289974 -0.03005,0.08773 -0.08496,0.165316 -0.149239,0.232158 -0.06428,0.06684 -0.138021,0.123752 -0.21191,0.179787 -0.07389,0.05604 -0.148469,0.11167 -0.214885,0.176387 -0.06642,0.06472 -0.124869,0.139276 -0.160556,0.224867 -0.03304,0.07925 -0.04565,0.165579 -0.05069,0.251293 -0.005,0.08571 -0.0028,0.171725 -0.0076,0.257454 -0.0292,0.522798 -0.33849,1.021672 -0.793762,1.280318 z"
       id="path18162-3-9"
       inkscape:path-effect="#path-effect18887"
       inkscape:original-d="m 60.869954,36.793578 c -0.264437,0.426696 0.587046,-0.572775 0.880791,-0.859277 0.293745,-0.2865 0.248743,-0.61945 0.373343,-0.929289 0.124599,-0.309839 0.563382,-0.578972 0.845295,-0.868572 0.281915,-0.289599 -0.04223,-0.653733 -0.06312,-0.980713 -0.02089,-0.32698 0.373343,-0.92929 0.373343,-0.92929 0.124599,-0.309839 -0.227561,0.261913 -0.341118,0.392756 -0.113553,0.130843 -0.309682,0.659617 -0.464302,0.98931 -0.154617,0.329695 -0.01054,0.388617 -0.01558,0.582811 -0.0051,0.194195 -0.49121,0.542208 -0.73659,0.813199 -0.245381,0.27099 -0.039,0.339241 -0.05829,0.508747 -0.01928,0.169508 -0.529324,0.853622 -0.793762,1.280318 z"
       sodipodi:nodetypes="sssssssssssss" />
    <path
       style="fill:#12f629;fill-opacity:1;stroke:none;stroke-width:0.0923145px;stroke-linecap:butt;stroke-linejoin:miter;stroke-opacity:1"
       d="m 64.558194,36.311455 c -0.310707,-0.201016 -0.550811,-0.508941 -0.670021,-0.859277 -0.104695,-0.307679 -0.120337,-0.648504 -0.284004,-0.929289 -0.09134,-0.156693 -0.223423,-0.284681 -0.346697,-0.417716 -0.123274,-0.133035 -0.241883,-0.27785 -0.296322,-0.450856 -0.04953,-0.157412 -0.04223,-0.327073 -0.01984,-0.490568 0.02239,-0.163495 0.05938,-0.325342 0.06786,-0.490145 0.01699,-0.330102 -0.08538,-0.665082 -0.284004,-0.92929 0.09112,0.127782 0.177694,0.258811 0.25949,0.392756 0.184771,0.302571 0.349004,0.634808 0.353196,0.98931 0.0012,0.09762 -0.0099,0.194941 -0.01428,0.292476 -0.0043,0.09754 -0.0017,0.196753 0.02613,0.290335 0.04732,0.159132 0.162428,0.28777 0.275489,0.409339 0.113061,0.121569 0.230589,0.246956 0.284838,0.40386 0.05588,0.161627 0.03825,0.337841 0.04434,0.508747 0.01727,0.484701 0.240801,0.958678 0.603818,1.280318 z"
       id="path18162-3-9-9"
       inkscape:path-effect="#path-effect18916"
       inkscape:original-d="m 64.558194,36.311455 c 0.201158,0.426696 -0.446568,-0.572775 -0.670021,-0.859277 -0.223453,-0.2865 -0.18922,-0.61945 -0.284004,-0.929289 -0.09478,-0.309839 -0.428567,-0.578972 -0.643019,-0.868572 -0.214454,-0.289599 0.03212,-0.653733 0.04802,-0.980713 0.01589,-0.32698 -0.284004,-0.92929 -0.284004,-0.92929 -0.09478,-0.309839 0.173107,0.261913 0.25949,0.392756 0.08638,0.130843 0.235576,0.659617 0.353196,0.98931 0.117618,0.329695 0.008,0.388617 0.01185,0.582811 0.0039,0.194195 0.373665,0.542208 0.560327,0.813199 0.186662,0.27099 0.02967,0.339241 0.04434,0.508747 0.01467,0.169508 0.402659,0.853622 0.603818,1.280318 z"
       sodipodi:nodetypes="sssssssssssss" />
    <path
       style="fill:#12f629;fill-opacity:1;stroke:none;stroke-width:0.0923145px;stroke-linecap:butt;stroke-linejoin:miter;stroke-opacity:1"
       d="m 66.694079,36.559419 c -0.310707,-0.201016 -0.550811,-0.508941 -0.670021,-0.859277 -0.104695,-0.307679 -0.120337,-0.648504 -0.284004,-0.929289 -0.09134,-0.156693 -0.223423,-0.284681 -0.346697,-0.417716 -0.123274,-0.133035 -0.241883,-0.27785 -0.296322,-0.450856 -0.04953,-0.157412 -0.04223,-0.327073 -0.01984,-0.490568 0.02239,-0.163495 0.05938,-0.325342 0.06786,-0.490145 0.01699,-0.330102 -0.08538,-0.665082 -0.284004,-0.92929 0.09112,0.127782 0.177694,0.258811 0.25949,0.392756 0.184771,0.302571 0.349004,0.634808 0.353196,0.98931 0.0012,0.09762 -0.0099,0.194941 -0.01428,0.292476 -0.0043,0.09754 -0.0017,0.196753 0.02613,0.290335 0.04732,0.159132 0.162428,0.28777 0.275489,0.409339 0.113061,0.121569 0.230589,0.246956 0.284838,0.40386 0.05588,0.161627 0.03825,0.337841 0.04434,0.508747 0.01727,0.484701 0.240801,0.958678 0.603818,1.280318 z"
       id="path18162-3-9-9-4"
       inkscape:path-effect="#path-effect18945"
       inkscape:original-d="m 66.694079,36.559419 c 0.201158,0.426696 -0.446568,-0.572775 -0.670021,-0.859277 -0.223453,-0.2865 -0.18922,-0.61945 -0.284004,-0.929289 -0.09478,-0.309839 -0.428567,-0.578972 -0.643019,-0.868572 -0.214454,-0.289599 0.03212,-0.653733 0.04802,-0.980713 0.01589,-0.32698 -0.284004,-0.92929 -0.284004,-0.92929 -0.09478,-0.309839 0.173107,0.261913 0.25949,0.392756 0.08638,0.130843 0.235576,0.659617 0.353196,0.98931 0.117618,0.329695 0.008,0.388617 0.01185,0.582811 0.0039,0.194195 0.373665,0.542208 0.560327,0.813199 0.186662,0.27099 0.02967,0.339241 0.04434,0.508747 0.01467,0.169508 0.402659,0.853622 0.603818,1.280318 z"
       sodipodi:nodetypes="sssssssssssss" />
    <path
       style="fill:#12f629;fill-opacity:1;stroke:none;stroke-width:0.0923145px;stroke-linecap:butt;stroke-linejoin:miter;stroke-opacity:1"
       d="M 62.340426,36.552516 C 62.029719,36.3515 61.789615,36.043575 61.670405,35.693239 61.56571,35.38556 61.550068,35.044735 61.386401,34.76395 c -0.09134,-0.156693 -0.223423,-0.284681 -0.346697,-0.417716 -0.123274,-0.133035 -0.241883,-0.27785 -0.296322,-0.450856 -0.04953,-0.157412 -0.04223,-0.327073 -0.01984,-0.490568 0.02239,-0.163495 0.05938,-0.325342 0.06786,-0.490145 0.01699,-0.330102 -0.08538,-0.665082 -0.284004,-0.92929 0.09112,0.127782 0.177694,0.258811 0.25949,0.392756 0.184771,0.302571 0.349004,0.634808 0.353196,0.98931 0.0012,0.09762 -0.0099,0.194941 -0.01428,0.292476 -0.0043,0.09754 -0.0017,0.196753 0.02613,0.290335 0.04732,0.159132 0.162428,0.28777 0.275489,0.409339 0.113061,0.121569 0.230589,0.246956 0.284838,0.40386 0.05588,0.161627 0.03825,0.337841 0.04434,0.508747 0.01727,0.484701 0.240801,0.958678 0.603818,1.280318 z"
       id="path18162-3-9-9-0"
       inkscape:path-effect="#path-effect18964"
       inkscape:original-d="m 62.340426,36.552516 c 0.201158,0.426696 -0.446568,-0.572775 -0.670021,-0.859277 -0.223453,-0.2865 -0.18922,-0.61945 -0.284004,-0.929289 -0.09478,-0.309839 -0.428567,-0.578972 -0.643019,-0.868572 -0.214454,-0.289599 0.03212,-0.653733 0.04802,-0.980713 0.01589,-0.32698 -0.284004,-0.92929 -0.284004,-0.92929 -0.09478,-0.309839 0.173107,0.261913 0.25949,0.392756 0.08638,0.130843 0.235576,0.659617 0.353196,0.98931 0.117618,0.329695 0.008,0.388617 0.01185,0.582811 0.0039,0.194195 0.373665,0.542208 0.560327,0.813199 0.186662,0.27099 0.02967,0.339241 0.04434,0.508747 0.01467,0.169508 0.402659,0.853622 0.603818,1.280318 z"
       sodipodi:nodetypes="sssssssssssss" />
    <text
       xml:space="preserve"
       style="font-size:4.23333px;line-height:1.25;font-family:sans-serif;stroke-width:0.264583"
       x="57.375412"
       y="39.305202"
       id="text25292"><tspan
         sodipodi:role="line"
         id="tspan25290"
         style="stroke-width:0.264583"
         x="57.375412"
         y="39.305202">mysqli</tspan></text>
    <path
       style="fill:none;stroke:#000000;stroke-width:0.264583px;stroke-linecap:butt;stroke-linejoin:miter;stroke-opacity:1"
       d="m 62.557284,20.282284 5.931876,2.454571 1.431835,6.204608 -5.181872,-2.7273 -1.090919,-7.227346 z"
       id="path26097" />
    <path
       style="fill:none;stroke:#000000;stroke-width:0.264583px;stroke-linecap:butt;stroke-linejoin:miter;stroke-opacity:1"
       d="m 57.374076,26.121064 1.494583,0.916034 -3.615925,3.471287 2.651678,4.242684 z"
       id="path26099" />
    <path
       style="fill:#b4c7b3;fill-opacity:1;stroke:none;stroke-width:0.264583px;stroke-linecap:butt;stroke-linejoin:miter;stroke-opacity:1"
       d="m 11.620588,33.642185 23.14191,-0.192849 c 0,0 1.993043,-5.656647 2.989165,-8.485368 0.996124,-2.82872 8.871066,5.785478 8.871066,5.785478 l 0.289275,2.989164 -13.210175,0.385699 -22.46694,0.289273 z"
       id="path26101" />
  </g>
  <g
     inkscape:groupmode="layer"
     id="layer2"
     inkscape:label="Слой 2"
     style="display:inline"
     transform="translate(-3.6465616,-15.032231)" />
  <g
     inkscape:label="Слой 1"
     inkscape:groupmode="layer"
     id="layer1"
     transform="translate(-35.011921,-136.31714)"
     style="display:inline" />
</svg>
