<?xml version="1.0" encoding="UTF-8" standalone="no"?>
<!-- Created with Inkscape (http://www.inkscape.org/) -->

<svg
   width="74.853317mm"
   height="26.705603mm"
   viewBox="0 0 74.853316 26.705603"
   version="1.1"
   id="svg31125"
   inkscape:version="1.1 (c68e22c387, 2021-05-23)"
   sodipodi:docname="авторизация.svg"
   xmlns:inkscape="http://www.inkscape.org/namespaces/inkscape"
   xmlns:sodipodi="http://sodipodi.sourceforge.net/DTD/sodipodi-0.dtd"
   xmlns="http://www.w3.org/2000/svg"
   xmlns:svg="http://www.w3.org/2000/svg">
  <sodipodi:namedview
     id="namedview31127"
     pagecolor="#ffffff"
     bordercolor="#666666"
     borderopacity="1.0"
     inkscape:pageshadow="2"
     inkscape:pageopacity="0.0"
     inkscape:pagecheckerboard="0"
     inkscape:document-units="mm"
     showgrid="false"
     inkscape:zoom="1.5675588"
     inkscape:cx="38.276076"
     inkscape:cy="171.28544"
     inkscape:window-width="1920"
     inkscape:window-height="1051"
     inkscape:window-x="-9"
     inkscape:window-y="-9"
     inkscape:window-maximized="1"
     inkscape:current-layer="layer3" />
  <defs
     id="defs31122">
    <inkscape:path-effect
       effect="spiro"
       id="path-effect5010"
       is_visible="true"
       lpeversion="1" />
    <inkscape:path-effect
       effect="spiro"
       id="path-effect4080"
       is_visible="true"
       lpeversion="1" />
    <inkscape:path-effect
       effect="spiro"
       id="path-effect3576"
       is_visible="true"
       lpeversion="1" />
    <inkscape:path-effect
       effect="spiro"
       id="path-effect3539"
       is_visible="true"
       lpeversion="1" />
    <inkscape:path-effect
       effect="spiro"
       id="path-effect2979"
       is_visible="true"
       lpeversion="1" />
    <inkscape:path-effect
       effect="spiro"
       id="path-effect2975"
       is_visible="true"
       lpeversion="1" />
    <inkscape:path-effect
       effect="spiro"
       id="path-effect2431"
       is_visible="true"
       lpeversion="1" />
    <inkscape:path-effect
       effect="spiro"
       id="path-effect2115"
       is_visible="true"
       lpeversion="1" />
    <inkscape:path-effect
       effect="spiro"
       id="path-effect3479"
       is_visible="true"
       lpeversion="1" />
    <inkscape:path-effect
       effect="spiro"
       id="path-effect1173"
       is_visible="true"
       lpeversion="1" />
    <inkscape:path-effect
       effect="spiro"
       id="path-effect1136"
       is_visible="true"
       lpeversion="1" />
    <inkscape:path-effect
       effect="spiro"
       id="path-effect14657"
       is_visible="true"
       lpeversion="1" />
    <inkscape:path-effect
       effect="spiro"
       id="path-effect14661"
       is_visible="true"
       lpeversion="1" />
    <inkscape:path-effect
       effect="spiro"
       id="path-effect14665"
       is_visible="true"
       lpeversion="1" />
    <inkscape:path-effect
       effect="spiro"
       id="path-effect14669"
       is_visible="true"
       lpeversion="1" />
    <inkscape:path-effect
       effect="spiro"
       id="path-effect14673"
       is_visible="true"
       lpeversion="1" />
  </defs>
  <g
     inkscape:groupmode="layer"
     id="layer3"
     inkscape:label="Слой 3"
     transform="translate(-2.2763226,-15.14673)">
    <text
       xml:space="preserve"
       style="font-size:14.1111px;line-height:1.25;font-family:sans-serif;stroke-width:0.264583"
       x="8.4086475"
       y="35.789455"
       id="text2691"><tspan
         sodipodi:role="line"
         id="tspan2689"
         style="stroke-width:0.264583"
         x="8.4086475"
         y="35.789455" /></text>
    <rect
       style="fill:#f7f8d2;fill-opacity:1;stroke:none;stroke-width:3.08546;stroke-linecap:round;stroke-linejoin:round"
       id="rect7409"
       width="74.853317"
       height="26.705603"
       x="2.2763226"
       y="15.14673" />
    <text
       xml:space="preserve"
       style="font-size:5.64444px;line-height:1.25;font-family:Romantic;-inkscape-font-specification:Romantic;stroke-width:0.264583"
       x="56.723816"
       y="21.359842"
       id="text10485"><tspan
         sodipodi:role="line"
         id="tspan10483"
         style="font-style:normal;font-variant:normal;font-weight:normal;font-stretch:normal;font-family:'BankGothic Lt BT';-inkscape-font-specification:'BankGothic Lt BT';stroke-width:0.264583"
         x="56.723816"
         y="21.359842">auth</tspan></text>
  </g>
  <g
     inkscape:groupmode="layer"
     id="layer2"
     inkscape:label="Слой 2"
     style="display:inline"
     transform="translate(-2.2763226,-15.14673)" />
  <g
     inkscape:label="Слой 1"
     inkscape:groupmode="layer"
     id="layer1"
     transform="translate(-33.641682,-136.43164)"
     style="display:inline">
    <path
       id="path846-2"
       style="display:inline;fill:#a7a2ff;stroke:none;stroke-width:0.0174532;stroke-linecap:round;stroke-linejoin:round"
       d="m 101.83195,156.62232 a 2.5055938,2.5055938 0 0 0 -2.454969,2.55522 2.5055938,2.5055938 0 0 0 2.555279,2.45492 2.5055938,2.5055938 0 0 0 2.45491,-2.55523 2.5055938,2.5055938 0 0 0 -2.55522,-2.45491 z m -0.007,0.53703 a 2.003461,2.0034611 88.853021 0 1 2.04314,1.96294 2.003461,2.0034611 88.853021 0 1 -1.96295,2.04314 2.003461,2.0034611 88.853021 0 1 -2.043136,-1.96294 2.003461,2.0034611 88.853021 0 1 1.962946,-2.04314 z" />
    <path
       style="display:inline;fill:#00066c;fill-opacity:1;stroke:none;stroke-width:0.0165946;stroke-linecap:butt;stroke-linejoin:miter;stroke-miterlimit:4;stroke-dasharray:none;stroke-opacity:1"
       d="m 101.54001,159.27054 c -0.18977,-0.32463 -0.39007,-0.64312 -0.60046,-0.95478 -0.17285,-0.25605 -0.35571,-0.51095 -0.59617,-0.70491 -0.2142,-0.17278 -0.469345,-0.29212 -0.736295,-0.359 -0.287808,-0.0721 -0.59091,-0.0839 -0.882904,-0.0313 -0.308387,0.0556 -0.604575,0.18391 -0.850188,0.37851 -0.211694,0.16772 -0.383783,0.38234 -0.517627,0.61693 -0.132103,0.23154 -0.228562,0.48546 -0.263765,0.7497 -0.0425,0.31899 0.0058,0.64754 0.123122,0.94721 0.120266,0.3072 0.313302,0.58618 0.561386,0.80364 0.253226,0.22196 0.563959,0.37907 0.894242,0.44468 0.24884,0.0494 0.506909,0.0472 0.756738,0.003 0.245569,-0.0434 0.483958,-0.12716 0.702711,-0.24689 0.0585,0.0601 0.12104,0.11623 0.18717,0.1678 0.0642,0.05 0.13165,0.0958 0.20187,0.13688 -0.0347,0.0204 -0.069,0.0416 -0.10289,0.0633 -0.059,0.0378 -0.1168,0.0777 -0.17853,0.11079 -0.0961,0.0516 -0.20014,0.0861 -0.303954,0.11943 -0.17704,0.0568 -0.355767,0.11066 -0.539439,0.13947 -0.392711,0.0616 -0.79907,0.006 -1.172836,-0.12969 -0.29375,-0.10636 -0.570809,-0.2621 -0.805867,-0.46789 -0.207933,-0.18204 -0.381609,-0.40196 -0.518327,-0.64214 -0.142339,-0.25005 -0.245229,-0.52301 -0.297973,-0.80586 -0.06943,-0.37236 -0.05095,-0.76051 0.05099,-1.12531 0.09555,-0.34192 0.264252,-0.66342 0.492877,-0.93503 0.27374,-0.3252 0.632035,-0.57688 1.026873,-0.73434 0.273584,-0.10911 0.565817,-0.17387 0.860299,-0.17958 0.329681,-0.006 0.659044,0.0613 0.965588,0.18285 0.214269,0.0849 0.418629,0.19634 0.601059,0.3372 0.2671,0.20625 0.48246,0.47137 0.68271,0.743 0.19661,0.26669 0.38125,0.54222 0.55316,0.82547 l -0.29358,0.54664 z"
       id="path4560-4"
       inkscape:path-effect="#path-effect14665"
       inkscape:original-d="m 101.54001,159.27054 c 0,0 -0.40212,-0.63807 -0.60046,-0.95478 -0.19835,-0.31669 -0.39742,-0.46991 -0.59617,-0.70491 -0.19876,-0.235 -0.490838,-0.23931 -0.736295,-0.359 -0.245457,-0.1197 -0.588574,-0.0208 -0.882904,-0.0313 -0.294328,-0.0105 -0.566765,0.25237 -0.850188,0.37851 -0.283425,0.12614 -0.345058,0.41131 -0.517627,0.61693 -0.172569,0.20562 -0.175816,0.49982 -0.263765,0.7497 -0.08795,0.24987 0.08211,0.6315 0.123122,0.94721 0.04102,0.31571 0.374284,0.53578 0.561386,0.80364 0.187101,0.26785 0.596188,0.29648 0.894242,0.44468 0.298053,0.1482 0.504519,0.002 0.756738,0.003 0.252219,7.7e-4 0.702711,-0.24689 0.702711,-0.24689 0,0 0.12481,0.1119 0.18717,0.1678 0.0624,0.0559 0.20187,0.13688 0.20187,0.13688 0,0 -0.0686,0.0422 -0.10289,0.0633 -0.0343,0.0211 -0.11899,0.0739 -0.17853,0.11079 -0.0595,0.0369 -0.20261,0.0796 -0.303954,0.11943 -0.101344,0.0398 -0.359599,0.093 -0.539439,0.13947 -0.179841,0.0464 -0.781864,-0.0864 -1.172836,-0.12969 -0.390974,-0.0433 -0.537218,-0.31191 -0.805867,-0.46789 -0.26865,-0.15599 -0.345525,-0.42807 -0.518327,-0.64214 -0.172803,-0.21408 -0.198622,-0.53721 -0.297973,-0.80586 -0.09935,-0.26863 0.03402,-0.75017 0.05099,-1.12531 0.01697,-0.37512 0.328612,-0.62332 0.492877,-0.93503 0.164266,-0.3117 0.684609,-0.48953 1.026873,-0.73434 0.342263,-0.2448 0.573561,-0.11969 0.860299,-0.17958 0.28674,-0.0599 0.643753,0.12193 0.965588,0.18285 0.321829,0.0609 0.400729,0.22483 0.601059,0.3372 0.20033,0.11238 0.45517,0.49536 0.68271,0.743 0.22754,0.24765 0.55316,0.82547 0.55316,0.82547 0,0 -0.36302,0.34422 -0.29358,0.54664 z"
       sodipodi:nodetypes="sssssssssssccscssssssssssssssscs" />
    <path
       style="display:inline;fill:#a7a2ff;fill-opacity:1;stroke:none;stroke-width:0.0165946;stroke-linecap:butt;stroke-linejoin:miter;stroke-miterlimit:4;stroke-dasharray:none;stroke-opacity:1"
       d="m 102.34509,157.21541 c 0.0622,0.0125 0.12351,0.0295 0.18327,0.0508 0.0633,0.0226 0.12483,0.05 0.1857,0.0786 0.0596,0.028 0.11867,0.0571 0.17716,0.0874 -0.004,0.0182 -0.008,0.0364 -0.0119,0.0544 -0.0249,0.10283 -0.0625,0.20205 -0.10012,0.30094 -0.12876,0.33884 -0.258,0.67825 -0.41966,1.00269 -0.12195,0.24474 -0.26186,0.48001 -0.3994,0.71634 -0.13556,0.23293 -0.28508,0.45774 -0.45674,0.6655 l -0.61333,0.74228 c -0.0832,-0.0506 -0.16387,-0.10541 -0.24157,-0.16412 -0.054,-0.0408 -0.10656,-0.0835 -0.15757,-0.12794 0.0116,-0.0109 0.0228,-0.0221 0.0338,-0.0336 0.0293,-0.0307 0.0563,-0.0633 0.084,-0.0954 0.0808,-0.0936 0.16698,-0.18233 0.24793,-0.27574 0.10932,-0.12615 0.20876,-0.26049 0.30617,-0.39604 0.13009,-0.18102 0.2569,-0.36464 0.37166,-0.55575 0.13595,-0.2264 0.25469,-0.46286 0.36127,-0.70448 0.17396,-0.39438 0.31577,-0.80313 0.41962,-1.22148 0.0103,-0.0414 0.0202,-0.0829 0.0297,-0.1244 z"
       id="path9194-0"
       inkscape:path-effect="#path-effect14669"
       inkscape:original-d="m 102.34509,157.21541 c 0,0 0.12221,0.0339 0.18327,0.0508 0.0611,0.0169 0.12383,0.0524 0.1857,0.0786 0.0619,0.0262 0.17716,0.0874 0.17716,0.0874 0,0 -0.008,0.0363 -0.0119,0.0544 -0.004,0.0181 -0.0667,0.20066 -0.10012,0.30094 -0.0334,0.10029 -0.27975,0.66848 -0.41966,1.00269 -0.13991,0.3342 -0.26624,0.47759 -0.3994,0.71634 -0.13316,0.23875 -0.45674,0.6655 -0.45674,0.6655 l -0.61333,0.74228 c 0,0 -0.16102,-0.10939 -0.24157,-0.16412 -0.0806,-0.0548 -0.15757,-0.12794 -0.15757,-0.12794 0,0 0.0226,-0.0224 0.0338,-0.0336 0.0112,-0.0112 0.056,-0.0636 0.084,-0.0954 0.028,-0.0319 0.16531,-0.1838 0.24793,-0.27574 0.0826,-0.0919 0.20414,-0.264 0.30617,-0.39604 0.10202,-0.13204 0.2478,-0.37047 0.37166,-0.55575 0.12386,-0.18527 0.24087,-0.46963 0.36127,-0.70448 0.1204,-0.23486 0.27977,-0.81429 0.41962,-1.22148 0.13984,-0.40718 0.0297,-0.1244 0.0297,-0.1244 z"
       sodipodi:nodetypes="csscssssccscsssssssc" />
    <path
       style="display:inline;fill:#00066c;fill-opacity:1;stroke:none;stroke-width:0.02661px;stroke-linecap:butt;stroke-linejoin:miter;stroke-opacity:1"
       d="m 102.13359,159.19864 c 0.16983,0.28574 0.32825,0.57825 0.47477,0.87661 0.12607,0.25673 0.24333,0.51779 0.3515,0.78256 -0.0558,0.0355 -0.11305,0.0688 -0.17147,0.0999 -0.0642,0.0342 -0.13001,0.0656 -0.19806,0.0913 -0.0526,0.0199 -0.10659,0.0363 -0.16138,0.0492 -0.004,-0.0114 -0.008,-0.0229 -0.0122,-0.0342 -0.0155,-0.0417 -0.0329,-0.0828 -0.05,-0.12384 -0.0301,-0.0722 -0.0594,-0.14469 -0.0886,-0.21725 -0.0988,-0.24567 -0.20772,-0.48727 -0.33378,-0.72013 l -0.14315,-0.26442 c 0.0552,-0.0861 0.10961,-0.17276 0.16329,-0.25984 0.0572,-0.0928 0.11353,-0.18606 0.16901,-0.27986 z"
       id="path12664-3"
       inkscape:path-effect="#path-effect14673"
       inkscape:original-d="m 102.13359,159.19864 c 0,0 0.31654,0.58443 0.47477,0.87661 0.15823,0.29216 0.3515,0.78256 0.3515,0.78256 0,0 -0.11429,0.0666 -0.17147,0.0999 -0.0572,0.0333 -0.13201,0.0609 -0.19806,0.0913 -0.066,0.0304 -0.16138,0.0492 -0.16138,0.0492 0,0 -0.008,-0.0228 -0.0122,-0.0342 -0.004,-0.0114 -0.0333,-0.0825 -0.05,-0.12384 -0.0167,-0.0413 -0.059,-0.14481 -0.0886,-0.21725 -0.0296,-0.0724 -0.33378,-0.72013 -0.33378,-0.72013 l -0.14315,-0.26442 c 0,0 0.10888,-0.17319 0.16329,-0.25984 0.0544,-0.0866 0.16901,-0.27986 0.16901,-0.27986 z"
       sodipodi:nodetypes="cscsscsssccsc" />
    <rect
       style="fill:#959595;fill-opacity:1;stroke-width:2.265;stroke-linecap:round;stroke-linejoin:round"
       id="rect1207"
       width="14.420365"
       height="10.7209"
       x="16.675041"
       y="26.583624"
       transform="translate(31.365359,121.28491)" />
    <path
       style="fill:#959595;fill-opacity:1;stroke:none;stroke-width:0.264583px;stroke-linecap:butt;stroke-linejoin:miter;stroke-opacity:1"
       d="m 18.061138,26.485689 c 0.123108,-2.068424 0.133588,-4.143547 0.03138,-6.213109 -0.02885,-0.584221 -0.0665,-1.17274 0.01601,-1.751824 0.08251,-0.579084 0.296167,-1.156749 0.705712,-1.574385 0.440586,-0.449291 1.059099,-0.670735 1.663105,-0.847243 1.019076,-0.297803 2.078557,-0.509487 3.137933,-0.43931 1.004662,0.06655 1.972896,0.383226 2.949658,0.627586 0.552991,0.138344 1.115608,0.255311 1.637882,0.483714 0.522274,0.228404 1.010506,0.58316 1.280396,1.085253 0.279539,0.520045 0.297521,1.135674 0.313793,1.725864 0.03143,1.140132 0.08027,2.279867 0.09414,3.420348 0.01463,1.203126 -0.0097,2.40658 -0.06276,3.608623 -0.01848,0.418358 -0.04041,0.838363 0,1.255174 0.02477,0.25549 0.07296,0.509948 0.06594,0.76654 -0.0035,0.128296 -0.02105,0.256871 -0.06136,0.378721 -0.04031,0.121849 -0.103967,0.236988 -0.192856,0.329568 -0.08531,0.08885 -0.192931,0.155652 -0.309519,0.1954 -0.116589,0.03975 -0.241931,0.05262 -0.364489,0.04027 -0.245114,-0.0247 -0.474756,-0.150721 -0.643925,-0.329811 -0.220342,-0.233264 -0.338912,-0.547954 -0.387257,-0.865169 -0.04834,-0.317215 -0.0316,-0.64035 -0.01291,-0.960683 0.06638,-1.137547 0.155924,-2.275036 0.149132,-3.414498 -0.0068,-1.140543 -0.110126,-2.280767 -0.06276,-3.420347 0.01158,-0.278627 0.03216,-0.557885 0.01144,-0.835982 -0.02072,-0.278097 -0.08502,-0.558195 -0.231096,-0.795744 -0.170112,-0.276638 -0.441798,-0.479429 -0.735631,-0.617738 -0.293832,-0.138308 -0.611469,-0.217375 -0.927473,-0.292263 -0.909582,-0.215555 -1.828993,-0.403941 -2.761382,-0.47069 -0.810931,-0.05805 -1.656723,-0.01654 -2.38483,0.345173 -0.383741,0.190638 -0.730434,0.474279 -0.94138,0.847242 -0.275233,0.486626 -0.296893,1.072845 -0.282414,1.631726 0.02027,0.782633 0.09782,1.562953 0.117666,2.345597 0.02553,1.006829 -0.04442,2.016596 0.03923,3.020269 0.04535,0.544132 0.135402,1.095708 0.03138,1.631726 -0.04093,0.210893 -0.112426,0.417438 -0.226519,0.599464 -0.114092,0.182027 -0.272205,0.338934 -0.463826,0.436054 -0.18318,0.09284 -0.394125,0.128853 -0.598167,0.10559 -0.204042,-0.02326 -0.400576,-0.105269 -0.562869,-0.231107 -0.27494,-0.213182 -0.445917,-0.554626 -0.451914,-0.90248 -0.006,-0.347854 0.153107,-0.694989 0.420534,-0.917522 z"
       id="path2113"
       inkscape:path-effect="#path-effect2115"
       inkscape:original-d="m 18.061138,26.485689 c -0.01072,-0.606932 0.02118,-4.141808 0.03138,-6.213109 0.01019,-2.071301 0.481415,-2.217208 0.721725,-3.326209 0.24031,-1.109002 1.109001,-0.564564 1.663105,-0.847243 0.554103,-0.282678 2.09222,-0.292609 3.137933,-0.43931 1.045714,-0.146702 1.966703,0.418655 2.949658,0.627586 0.982955,0.208931 1.945784,1.046243 2.918278,1.568967 0.972494,0.522725 0.20946,1.150841 0.313793,1.725864 0.104333,0.575023 0.06302,2.280496 0.09414,3.420348 0.03111,1.139851 -0.04157,2.406013 -0.06276,3.608623 -0.02119,1.20261 2.65e-4,0.837047 0,1.255174 -2.64e-4,0.418126 -0.125251,0.983484 -0.188274,1.474829 -0.06302,0.491345 -0.878359,-0.06249 -1.317933,-0.09414 -0.439575,-0.03164 -0.337145,-1.187541 -0.400168,-1.825852 -0.06302,-0.638311 0.170322,-2.305496 0.149132,-3.414498 -0.02118,-1.109001 -0.04157,-2.279967 -0.06276,-3.420347 -0.02118,-1.140381 -0.146173,-1.087553 -0.219656,-1.631726 -0.07348,-0.544173 -1.108472,-0.606403 -1.663104,-0.910001 -0.554634,-0.303598 -1.840657,-0.313528 -2.761382,-0.47069 -0.920725,-0.157161 -1.589622,0.23038 -2.38483,0.345173 -0.795208,0.114793 -0.627322,0.565093 -0.94138,0.847242 -0.314058,0.28215 -0.188011,1.088082 -0.282414,1.631726 -0.0944,0.543643 0.09701,1.582298 0.117666,2.345597 0.02066,0.7633 0.0081,1.995476 0.03923,3.020269 0.03111,1.024794 0.02118,1.088082 0.03138,1.631726 0.01019,0.543644 -0.459966,0.69061 -0.690345,1.035518 -0.23038,0.344908 -0.77376,-0.08341 -1.161036,-0.125517 -0.387276,-0.0421 -0.02066,-1.21307 -0.03138,-1.820002 z"
       sodipodi:nodetypes="scsssssscssscsccsssssssccscss"
       transform="translate(31.365359,121.28491)" />
    <rect
       style="fill:#57ff6c;fill-opacity:1;stroke-width:2.265;stroke-linecap:round;stroke-linejoin:round"
       id="rect1207-3"
       width="14.420365"
       height="10.7209"
       x="38.479813"
       y="27.939783"
       transform="translate(31.365359,121.28491)" />
    <path
       style="fill:#57ff6c;fill-opacity:1;stroke:none;stroke-width:0.264583px;stroke-linecap:butt;stroke-linejoin:miter;stroke-opacity:1"
       d="m 39.86591,27.841848 c 0.123108,-2.068424 0.133588,-4.143546 0.03138,-6.213108 -0.02885,-0.584221 -0.0665,-1.17274 0.01601,-1.751824 0.08251,-0.579084 0.296167,-1.156749 0.705712,-1.574385 0.440586,-0.449291 1.059099,-0.670735 1.663105,-0.847243 1.019076,-0.297803 2.078557,-0.509487 3.137933,-0.43931 1.004662,0.06655 1.972896,0.383226 2.949658,0.627586 0.552991,0.138344 1.115608,0.255311 1.637882,0.483714 0.522274,0.228404 1.010506,0.58316 1.280396,1.085253 0.279539,0.520045 0.297521,1.135674 0.313793,1.725864 0.03144,1.140132 0.08027,2.279867 0.09414,3.420348 0.01463,1.203126 -0.0097,2.40658 -0.06276,3.608623 -0.01848,0.418358 -0.04041,0.838363 0,1.255174 0.02477,0.25549 0.07296,0.509948 0.06594,0.76654 -0.0035,0.128296 -0.02105,0.256871 -0.06136,0.378721 -0.04031,0.121849 -0.103967,0.236988 -0.192856,0.329568 -0.08531,0.08885 -0.192931,0.155652 -0.309519,0.1954 -0.116589,0.03975 -0.241931,0.05262 -0.364489,0.04027 -0.245114,-0.0247 -0.474756,-0.150721 -0.643925,-0.329811 -0.220342,-0.233264 -0.338912,-0.547954 -0.387257,-0.865169 -0.04834,-0.317215 -0.0316,-0.64035 -0.01291,-0.960683 0.06638,-1.137547 0.155924,-2.275036 0.149132,-3.414498 -0.0068,-1.140543 -0.110126,-2.280767 -0.06276,-3.420347 0.01158,-0.278627 0.03216,-0.557885 0.01144,-0.835982 -0.02072,-0.278097 -0.08502,-0.558195 -0.231096,-0.795744 -0.170112,-0.276638 -0.441798,-0.479429 -0.735631,-0.617738 -0.293832,-0.138308 -0.611469,-0.217376 -0.927473,-0.292263 -0.909582,-0.215555 -1.828993,-0.403941 -2.761382,-0.47069 -0.81093,-0.05805 -1.656723,-0.01654 -2.38483,0.345172 -0.383741,0.190639 -0.730434,0.47428 -0.94138,0.847243 -0.275233,0.486626 -0.296892,1.072845 -0.282414,1.631726 0.02028,0.782633 0.09782,1.562953 0.117666,2.345597 0.02553,1.006829 -0.04442,2.016596 0.03923,3.020269 0.04535,0.544132 0.135402,1.095708 0.03138,1.631726 -0.04093,0.210893 -0.112426,0.417438 -0.226519,0.599464 -0.114092,0.182027 -0.272205,0.338934 -0.463826,0.436054 -0.18318,0.09284 -0.394125,0.128853 -0.598167,0.10559 -0.204042,-0.02326 -0.400576,-0.105269 -0.562869,-0.231107 -0.27494,-0.213182 -0.445917,-0.554626 -0.451914,-0.90248 -0.006,-0.347854 0.153107,-0.694989 0.420534,-0.917522 z"
       id="path2113-7"
       inkscape:path-effect="#path-effect5010"
       inkscape:original-d="m 39.86591,27.841848 c -0.01072,-0.606932 0.02118,-4.141808 0.03138,-6.213108 0.01019,-2.071302 0.481415,-2.217208 0.721725,-3.326209 0.24031,-1.109002 1.109001,-0.564564 1.663105,-0.847243 0.554103,-0.282678 2.09222,-0.292609 3.137933,-0.43931 1.045714,-0.146702 1.966703,0.418655 2.949658,0.627586 0.982955,0.208931 1.945784,1.046243 2.918278,1.568967 0.972494,0.522725 0.20946,1.150841 0.313793,1.725864 0.104333,0.575023 0.06302,2.280496 0.09414,3.420348 0.03111,1.139851 -0.04157,2.406013 -0.06276,3.608623 -0.02119,1.20261 2.65e-4,0.837047 0,1.255174 -2.64e-4,0.418126 -0.125251,0.983484 -0.188274,1.474829 -0.06302,0.491345 -0.878359,-0.06249 -1.317933,-0.09414 -0.439575,-0.03164 -0.337145,-1.187541 -0.400168,-1.825852 -0.06302,-0.638311 0.170322,-2.305496 0.149132,-3.414498 -0.02118,-1.109001 -0.04157,-2.279967 -0.06276,-3.420347 -0.02118,-1.140381 -0.146173,-1.087553 -0.219656,-1.631726 -0.07348,-0.544173 -1.108472,-0.606403 -1.663104,-0.910001 -0.554634,-0.303598 -1.840657,-0.313528 -2.761382,-0.47069 -0.920725,-0.157161 -1.589622,0.23038 -2.38483,0.345172 -0.795208,0.114793 -0.627322,0.565094 -0.94138,0.847243 -0.314058,0.28215 -0.188011,1.088082 -0.282414,1.631726 -0.0944,0.543643 0.09701,1.582298 0.117666,2.345597 0.02066,0.7633 0.0081,1.995476 0.03923,3.020269 0.03111,1.024794 0.02118,1.088082 0.03138,1.631726 0.01019,0.543644 -0.459966,0.69061 -0.690345,1.035518 -0.23038,0.344908 -0.77376,-0.08341 -1.161036,-0.125517 -0.387276,-0.0421 -0.02066,-1.21307 -0.03138,-1.820002 z"
       sodipodi:nodetypes="scsssssscssscsccsssssssccscss"
       transform="translate(31.365359,121.28491)" />
    <path
       style="fill:#ffffff;fill-opacity:1;stroke:none;stroke-width:0.413919px;stroke-linecap:butt;stroke-linejoin:miter;stroke-opacity:1"
       d="m 22.51377,27.323775 c -0.568287,0.325956 -1.020346,0.843311 -1.289245,1.440714 -0.256863,0.570662 -0.348017,1.199201 -0.501028,1.806013 -0.04946,0.196137 -0.105677,0.3911 -0.136287,0.591047 -0.03061,0.199947 -0.03489,0.407021 0.01889,0.602016 0.05872,0.212906 0.18488,0.40315 0.340315,0.560051 0.155434,0.1569 0.339707,0.282433 0.530186,0.394217 0.380957,0.223568 0.797885,0.400813 1.11547,0.707815 0.278667,0.269381 0.461182,0.620048 0.651745,0.95755 0.238903,0.423115 0.498957,0.83694 0.817331,1.204008 0.198627,0.229007 0.426668,0.443772 0.707817,0.55714 0.140574,0.05668 0.293064,0.0866 0.444325,0.07689 0.151261,-0.0097 0.301108,-0.06015 0.421583,-0.152125 0.171219,-0.13072 0.273286,-0.337587 0.310175,-0.54982 0.03689,-0.212233 0.01392,-0.430647 -0.02819,-0.641905 -0.06885,-0.345378 -0.188551,-0.681048 -0.226365,-1.031186 -0.01891,-0.175069 -0.01687,-0.353682 0.02234,-0.525347 0.03922,-0.171664 0.116904,-0.336463 0.236735,-0.465486 0.121441,-0.130756 0.280801,-0.22014 0.443867,-0.292627 0.163067,-0.07249 0.332648,-0.130301 0.492363,-0.2099 0.302145,-0.150584 0.563255,-0.377288 0.772702,-0.64205 0.209448,-0.264761 0.368443,-0.567071 0.489313,-0.882281 0.113257,-0.295355 0.194153,-0.605161 0.213116,-0.920917 0.01896,-0.315757 -0.02565,-0.638149 -0.154056,-0.927239 -0.140612,-0.316562 -0.378025,-0.584648 -0.656657,-0.790432 -0.278632,-0.205785 -0.597761,-0.35175 -0.926439,-0.461085 -0.252795,-0.08409 -0.511407,-0.150607 -0.761227,-0.243162 -0.24982,-0.09256 -0.486493,-0.216822 -0.731908,-0.320495 -0.834145,-0.352377 -1.831385,-0.291938 -2.616869,0.158597 z"
       id="path2429"
       inkscape:path-effect="#path-effect2431"
       inkscape:original-d="m 22.51377,27.323775 c -1.603153,0.07613 -0.631637,1.135253 -1.289245,1.440714 -0.65761,0.30546 -0.708832,1.204329 -0.501028,1.806013 0.207804,0.601685 -0.421359,0.906713 -0.117398,1.193063 0.30396,0.28635 1.874324,1.155954 1.985971,1.662083 0.111656,0.506129 0.604214,0.480088 0.651745,0.95755 0.04755,0.477461 0.545425,0.802991 0.817331,1.204008 0.271911,0.401017 0.949241,0.501324 1.573725,0.481904 0.624484,-0.01942 0.394703,-0.5034 0.281984,-1.191725 -0.112728,-0.688325 0.0012,-1.64903 0.03271,-2.022019 0.0315,-0.372989 0.92072,-0.139094 0.93623,-0.502527 0.0154,-0.363434 0.461246,-1.380678 1.262015,-1.524331 0.800774,-0.143655 -0.309007,-1.427389 0.05906,-1.848156 0.368066,-0.420768 -1.165879,-0.601414 -1.583096,-1.251517 -0.417217,-0.650102 0.110016,-0.639783 -1.493135,-0.563657 z"
       sodipodi:nodetypes="csssscsssccssscc"
       transform="translate(31.365359,121.28491)" />
    <path
       style="fill:none;stroke:#000000;stroke-width:0.0644797px;stroke-linecap:butt;stroke-linejoin:miter;stroke-opacity:1"
       d="m 22.276994,32.621082 c -0.298357,-0.199678 -0.543075,-0.476793 -0.712532,-0.793292 -0.169457,-0.3165 -0.264145,-0.671605 -0.284083,-1.03006 -0.02669,-0.479899 0.07855,-0.958344 0.226503,-1.415646 0.203962,-0.630415 0.508348,-1.257015 1.03059,-1.664799 0.382643,-0.29878 0.866178,-0.460996 1.351513,-0.472596 0.485336,-0.0116 0.97064,0.124677 1.389177,0.370669 0.425302,0.249968 0.782126,0.611216 1.041917,1.03059 0.162457,0.262249 0.288493,0.549195 0.350192,0.851453 0.0617,0.302259 0.05752,0.620388 -0.03309,0.915273 -0.122338,0.398155 -0.391663,0.73168 -0.588909,1.098542 -0.107631,0.200185 -0.194244,0.411378 -0.307469,0.608453 -0.113225,0.197076 -0.257221,0.383153 -0.451317,0.501413 -0.08524,0.05194 -0.178285,0.08968 -0.271804,0.124577 -0.445042,0.166085 -0.916396,0.273515 -1.391386,0.268012 -0.474991,-0.0055 -0.954534,-0.128386 -1.349304,-0.392589 z"
       id="path2973"
       inkscape:path-effect="#path-effect2975"
       inkscape:original-d="m 22.276994,32.621082 c -0.913628,-0.04159 -0.664345,-1.215504 -0.996615,-1.823352 -0.332269,-0.607849 0.151066,-0.9437 0.226503,-1.415646 0.07543,-0.471947 0.687125,-1.109802 1.03059,-1.664799 0.343466,-0.554998 1.827192,-0.06789 2.74069,-0.101927 0.913501,-0.03404 0.694676,0.687124 1.041917,1.03059 0.34724,0.343466 0.211467,1.177882 0.317104,1.766726 0.105637,0.588845 -0.392541,0.732425 -0.588909,1.098542 -0.196367,0.366115 -0.505792,0.739975 -0.758786,1.109866 -0.252993,0.369891 -0.181138,0.08311 -0.271804,0.124577 -0.09067,0.04146 -1.827063,-0.08299 -2.74069,-0.124577 z"
       transform="translate(31.365359,121.28491)" />
    <path
       style="fill:#040900;fill-opacity:1;stroke:#000000;stroke-width:0.0644797px;stroke-linecap:butt;stroke-linejoin:miter;stroke-opacity:1"
       d="m 21.756036,28.940402 c 0.235134,0.28718 0.560034,0.499769 0.917339,0.600235 0.301168,0.08468 0.618824,0.09052 0.931333,0.07601 0.31251,-0.01451 0.624545,-0.04876 0.937319,-0.04204 0.277173,0.006 0.553956,0.04408 0.830785,0.02905 0.276829,-0.01503 0.562449,-0.09006 0.766064,-0.278207 0.06627,-0.06123 0.123661,-0.134085 0.201729,-0.179322 0.03903,-0.02262 0.08319,-0.03778 0.128302,-0.03802 0.04511,-2.34e-4 0.09115,0.01548 0.122975,0.04746 0.02443,0.02455 0.03938,0.05713 0.0487,0.09049 0.0093,0.03335 0.01345,0.06789 0.01925,0.102038 0.01886,0.111064 0.05541,0.218331 0.07927,0.32843 0.02815,0.129935 0.03848,0.263507 0.03397,0.396381 -0.0049,0.14516 -0.02885,0.293513 -0.101927,0.419031 -0.04286,0.07362 -0.101108,0.13683 -0.157501,0.200675 -0.05639,0.06384 -0.112044,0.129937 -0.148279,0.207031 -0.03418,0.07273 -0.04981,0.1525 -0.07191,0.229765 -0.0221,0.07727 -0.05246,0.155099 -0.109296,0.211917 -0.03628,0.03627 -0.08202,0.06235 -0.130531,0.07905 -0.04851,0.01671 -0.09981,0.0243 -0.15107,0.02657 -0.102513,0.0045 -0.204744,-0.01183 -0.307308,-0.01502 -0.231142,-0.0072 -0.459616,0.05253 -0.690834,0.05662 -0.12134,0.0021 -0.242816,-0.01106 -0.363939,-0.0035 -0.121123,0.0076 -0.245586,0.03835 -0.338222,0.116752 -0.0483,0.04088 -0.08575,0.09275 -0.126525,0.141142 -0.04077,0.04839 -0.08694,0.09484 -0.14528,0.119337 -0.05334,0.02239 -0.113823,0.02467 -0.170407,0.01267 -0.05658,-0.01201 -0.10956,-0.03771 -0.158023,-0.06929 -0.163971,-0.106845 -0.277363,-0.278746 -0.441681,-0.385056 -0.149013,-0.09641 -0.327914,-0.131549 -0.498307,-0.181203 -0.293605,-0.08556 -0.573037,-0.218921 -0.872038,-0.283129 -0.118312,-0.02541 -0.24072,-0.04035 -0.350234,-0.09183 -0.05476,-0.02574 -0.105805,-0.06076 -0.145103,-0.106765 -0.0393,-0.046 -0.06636,-0.103483 -0.07092,-0.163815 -0.0034,-0.04516 0.0057,-0.09047 0.01947,-0.133598 0.01381,-0.04313 0.03231,-0.08458 0.04848,-0.126881 0.105167,-0.274973 0.109767,-0.578186 0.192528,-0.860712 0.05633,-0.192308 0.149055,-0.373889 0.271804,-0.532283 z"
       id="path2977"
       inkscape:path-effect="#path-effect2979"
       inkscape:original-d="m 21.756036,28.940402 c 0.09054,-0.177492 0.611623,0.400221 0.917339,0.600235 0.305714,0.200013 1.245832,0.02271 1.868652,0.03397 0.62282,0.01126 1.06463,-0.166038 1.596849,-0.249154 0.532218,-0.08311 0.302068,-0.113186 0.453006,-0.169877 0.150938,-0.05669 0.04537,0.128417 0.06795,0.192527 0.02259,0.06411 0.05292,0.219019 0.07927,0.32843 0.02636,0.109413 0.02272,0.264319 0.03397,0.396381 0.01126,0.132063 -0.06789,0.279419 -0.101927,0.419031 -0.03404,0.139613 -0.203788,0.271869 -0.30578,0.407706 -0.10199,0.135838 -0.120737,0.294519 -0.181202,0.441682 -0.06046,0.147162 -0.392541,0.06046 -0.588909,0.0906 -0.196367,0.03014 -0.460492,0.03781 -0.690834,0.05662 -0.230343,0.01881 -0.468044,0.07556 -0.702161,0.113251 -0.234118,0.03768 -0.181138,0.173717 -0.271805,0.260479 -0.09067,0.08676 -0.218888,-0.03768 -0.32843,-0.05662 -0.109541,-0.01894 -0.294389,-0.256639 -0.441681,-0.385056 -0.147292,-0.128417 -0.33214,-0.120738 -0.498307,-0.181203 -0.166167,-0.06046 -0.581294,-0.188688 -0.872038,-0.283129 -0.290743,-0.09444 -0.37744,-0.241539 -0.566258,-0.362405 -0.188818,-0.120867 0.04537,-0.173588 0.06795,-0.260479 0.02259,-0.08689 0.128417,-0.573744 0.192528,-0.860712 0.06411,-0.28697 0.181268,-0.354791 0.271804,-0.532283 z"
       transform="translate(31.365359,121.28491)" />
    <path
       style="fill:#040900;fill-opacity:1;stroke:#000000;stroke-width:0.0644797px;stroke-linecap:butt;stroke-linejoin:miter;stroke-opacity:1"
       d="m 21.758461,32.107265 c 0.204366,-0.104502 0.431018,-0.165156 0.660262,-0.17669 0.404463,-0.02035 0.799063,0.109418 1.190331,0.213888 0.197784,0.05281 0.398102,0.09962 0.602094,0.116784 0.203992,0.01717 0.41269,0.0039 0.606837,-0.06099 0.241235,-0.08066 0.452591,-0.23803 0.697459,-0.306883 0.04855,-0.01365 0.0994,-0.02376 0.149254,-0.01618 0.02493,0.0038 0.04934,0.01208 0.07055,0.02572 0.02121,0.01364 0.03913,0.03275 0.04988,0.05556 0.0086,0.0182 0.01248,0.03844 0.01246,0.05856 -1.8e-5,0.02012 -0.0039,0.04013 -0.01026,0.05922 -0.01274,0.03817 -0.03515,0.07228 -0.058,0.105405 -0.09386,0.136107 -0.200865,0.265714 -0.33478,0.362679 -0.180121,0.130422 -0.398606,0.194871 -0.613765,0.251086 -0.317531,0.08296 -0.639794,0.153229 -0.967144,0.17669 -0.337015,0.02415 -0.678929,-0.0021 -1.004342,-0.093 -0.308416,-0.08618 -0.605662,-0.234175 -0.827658,-0.464968 -0.08796,-0.09145 -0.163291,-0.195026 -0.223186,-0.306883 z"
       id="path3537"
       inkscape:path-effect="#path-effect3539"
       inkscape:original-d="m 21.758461,32.107265 c -0.07446,-0.102358 0.440239,-0.117729 0.660262,-0.17669 0.220023,-0.05896 0.793618,0.142657 1.190331,0.213888 0.396713,0.07123 0.806018,0.03727 1.208931,0.05579 0.402912,0.01854 0.465037,-0.204524 0.697459,-0.306883 0.232423,-0.102358 0.179855,0.04346 0.269684,0.0651 0.08983,0.02163 -0.03713,0.148856 -0.05579,0.223187 -0.01867,0.07433 -0.223122,0.24185 -0.33478,0.362679 -0.111658,0.120829 -0.409112,0.167455 -0.613765,0.251086 -0.204652,0.08363 -0.644698,0.117857 -0.967144,0.17669 -0.322446,0.05883 -0.669497,-0.06193 -1.004342,-0.093 C 22.474457,32.848058 22.257598,32.5692 21.981649,32.414144 21.7057,32.259088 21.832923,32.20962 21.758463,32.107261 Z"
       transform="translate(31.365359,121.28491)" />
    <path
       style="fill:#ffffff;fill-opacity:1;stroke:#000000;stroke-width:0.0646191px;stroke-linecap:butt;stroke-linejoin:miter;stroke-opacity:1"
       d="m 22.360039,30.429036 c 0.111061,-0.083 0.243327,-0.137387 0.380652,-0.156512 0.06065,-0.0084 0.122537,-0.0101 0.183036,-6.59e-4 0.0605,0.0094 0.11965,0.03023 0.170535,0.06429 0.03164,0.02118 0.06006,0.04754 0.08157,0.07895 0.02151,0.03141 0.03595,0.06799 0.0393,0.10591 0.003,0.03422 -0.003,0.06909 -0.01656,0.10067 -0.01352,0.03158 -0.03441,0.05987 -0.05997,0.08282 -0.05113,0.0459 -0.120048,0.06952 -0.188711,0.07206 -0.06866,0.0025 -0.137057,-0.01496 -0.199648,-0.0433 -0.06259,-0.02834 -0.119819,-0.0673 -0.174318,-0.109142 -0.07701,-0.05913 -0.14928,-0.124434 -0.215882,-0.195083 z"
       id="path3574"
       inkscape:path-effect="#path-effect3576"
       inkscape:original-d="m 22.360039,30.429036 c -0.07188,-0.06508 0.253685,-0.104294 0.380652,-0.156512 0.126966,-0.05222 0.235632,0.04246 0.353571,0.06363 0.117941,0.02117 0.0805,0.123291 0.120872,0.184864 0.04037,0.06157 -0.426224,0.06878 -0.639213,0.103103 -0.212988,0.03432 -0.144004,-0.130007 -0.215882,-0.195083 z"
       transform="translate(31.365359,121.28491)" />
    <path
       style="fill:#ffffff;fill-opacity:1;stroke:#000000;stroke-width:0.0661811px;stroke-linecap:butt;stroke-linejoin:miter;stroke-opacity:1"
       d="m 25.112897,30.490567 c -0.117197,-0.0832 -0.254618,-0.137689 -0.396982,-0.157418 -0.06314,-0.0087 -0.127533,-0.01074 -0.190583,-0.0013 -0.06305,0.0094 -0.124814,0.03043 -0.178156,0.06533 -0.03238,0.02118 -0.06163,0.04754 -0.08404,0.07908 -0.02241,0.03154 -0.03781,0.0684 -0.04202,0.106857 -0.0039,0.03574 0.0019,0.07238 0.01581,0.105551 0.01387,0.03317 0.03566,0.06288 0.06244,0.08688 0.05355,0.048 0.126028,0.07213 0.197919,0.07399 0.07189,0.0019 0.143224,-0.0174 0.208444,-0.0477 0.06522,-0.0303 0.124833,-0.07141 0.182021,-0.115014 0.07922,-0.0604 0.154482,-0.125993 0.225144,-0.196214 z"
       id="path3574-1"
       inkscape:path-effect="#path-effect4080"
       inkscape:original-d="m 25.112897,30.490567 c 0.07496,-0.06545 -0.264568,-0.104898 -0.396982,-0.157418 -0.132413,-0.05252 -0.245741,0.04271 -0.368739,0.06399 -0.122999,0.02129 -0.08395,0.124004 -0.126057,0.185933 -0.04211,0.06193 0.444509,0.06918 0.666635,0.103701 0.222125,0.03452 0.150181,-0.130761 0.225144,-0.196214 z"
       transform="translate(31.365359,121.28491)" />
    <ellipse
       style="fill:#ffffff;fill-opacity:1;stroke:none;stroke-width:2.265;stroke-linecap:round;stroke-linejoin:round"
       id="path5036"
       cx="42.665974"
       cy="32.16835"
       rx="0.39851439"
       ry="0.35163036"
       transform="translate(31.365359,121.28491)" />
    <circle
       style="fill:#ffffff;fill-opacity:1;stroke:none;stroke-width:2.265;stroke-linecap:round;stroke-linejoin:round"
       id="path5038"
       cx="49.346951"
       cy="31.910488"
       r="0.42195642"
       transform="translate(31.365359,121.28491)" />
    <ellipse
       style="fill:#ffffff;fill-opacity:1;stroke:none;stroke-width:2.265;stroke-linecap:round;stroke-linejoin:round"
       id="path5040"
       cx="46.744884"
       cy="35.450233"
       rx="0.39851439"
       ry="0.3047463"
       transform="translate(31.365359,121.28491)" />
    <ellipse
       style="fill:#ffffff;fill-opacity:1;stroke:none;stroke-width:2.265;stroke-linecap:round;stroke-linejoin:round"
       id="path5042"
       cx="43.134815"
       cy="36.762985"
       rx="0.35163036"
       ry="0.25786227"
       transform="translate(31.365359,121.28491)" />
    <ellipse
       style="fill:#ffffff;fill-opacity:1;stroke:none;stroke-width:2.265;stroke-linecap:round;stroke-linejoin:round"
       id="path5044"
       cx="45.572784"
       cy="30.433641"
       rx="0.44539845"
       ry="0.39851439"
       transform="translate(31.365359,121.28491)" />
  </g>
</svg>
