<?xml version="1.0" encoding="UTF-8" standalone="no"?>
<!-- Created with Inkscape (http://www.inkscape.org/) -->

<svg
   width="74.589554mm"
   height="26.725994mm"
   viewBox="0 0 74.589553 26.725994"
   version="1.1"
   id="svg31125"
   inkscape:version="1.1.1 (3bf5ae0d25, 2021-09-20)"
   sodipodi:docname="WvxbmzfXBY.svg"
   xmlns:inkscape="http://www.inkscape.org/namespaces/inkscape"
   xmlns:sodipodi="http://sodipodi.sourceforge.net/DTD/sodipodi-0.dtd"
   xmlns="http://www.w3.org/2000/svg"
   xmlns:svg="http://www.w3.org/2000/svg">
  <sodipodi:namedview
     id="namedview31127"
     pagecolor="#ffffff"
     bordercolor="#666666"
     borderopacity="1.0"
     inkscape:pageshadow="2"
     inkscape:pageopacity="0.0"
     inkscape:pagecheckerboard="0"
     inkscape:document-units="mm"
     showgrid="false"
     inkscape:zoom="2.7439392"
     inkscape:cx="-8.9287693"
     inkscape:cy="39.177253"
     inkscape:window-width="1440"
     inkscape:window-height="877"
     inkscape:window-x="-8"
     inkscape:window-y="-8"
     inkscape:window-maximized="1"
     inkscape:current-layer="layer3" />
  <defs
     id="defs31122">
    <inkscape:path-effect
       effect="spiro"
       id="path-effect3479"
       is_visible="true"
       lpeversion="1" />
    <inkscape:path-effect
       effect="spiro"
       id="path-effect1173"
       is_visible="true"
       lpeversion="1" />
    <inkscape:path-effect
       effect="spiro"
       id="path-effect1136"
       is_visible="true"
       lpeversion="1" />
    <inkscape:path-effect
       effect="spiro"
       id="path-effect14657"
       is_visible="true"
       lpeversion="1" />
    <inkscape:path-effect
       effect="spiro"
       id="path-effect14661"
       is_visible="true"
       lpeversion="1" />
    <inkscape:path-effect
       effect="spiro"
       id="path-effect14665"
       is_visible="true"
       lpeversion="1" />
    <inkscape:path-effect
       effect="spiro"
       id="path-effect14669"
       is_visible="true"
       lpeversion="1" />
    <inkscape:path-effect
       effect="spiro"
       id="path-effect14673"
       is_visible="true"
       lpeversion="1" />
  </defs>
  <g
     inkscape:groupmode="layer"
     id="layer3"
     inkscape:label="Слой 3"
     transform="translate(-2.556672,-15.032231)">
    <path
       style="display:inline;fill:#becbff;fill-opacity:1;stroke:none;stroke-width:0.242652px;stroke-linecap:butt;stroke-linejoin:miter;stroke-opacity:1"
       d="M 3.3883345,33.761483 3.2727461,32.288253 2.556672,20.170126 4.5049336,16.637823 7.1350869,15.112511 17.655699,15.032231 h 18.605897 l 17.534358,0.240839 11.592155,0.321118 9.741309,0.240839 0.876719,1.926711 0.779302,5.699851 -0.779302,9.472993 0.8026,5.747134 -13.271476,0.273835 z"
       id="path6438"
       sodipodi:nodetypes="cccccccccccccccc" />
    <text
       xml:space="preserve"
       style="font-size:14.1111px;line-height:1.25;font-family:sans-serif;stroke-width:0.264583"
       x="8.4086475"
       y="35.789455"
       id="text2691"><tspan
         sodipodi:role="line"
         id="tspan2689"
         style="stroke-width:0.264583"
         x="8.4086475"
         y="35.789455" /></text>
  </g>
  <g
     inkscape:groupmode="layer"
     id="layer2"
     inkscape:label="Слой 2"
     style="display:inline"
     transform="translate(-2.556672,-15.032231)">
    <path
       style="fill:#2eff08;fill-opacity:1;stroke:none;stroke-width:0.181644px;stroke-linecap:butt;stroke-linejoin:miter;stroke-opacity:1"
       d="m 6.0950768,30.514372 c 2.0270662,0.04091 4.0578702,-0.10531 6.0581682,-0.436183 2.112008,-0.349351 4.194837,-0.904552 6.329429,-1.066228 1.959424,-0.148409 3.928657,0.0377 5.877327,0.290789 2.862027,0.371711 5.709344,0.888654 8.58994,1.066227 4.122643,0.254139 8.259555,-0.19003 12.387597,-0.04847 4.044256,0.138687 8.077905,0.839111 12.116335,0.58158 0.805409,-0.05136 1.609369,-0.140819 2.416413,-0.141945 0.807045,-0.0011 1.624755,0.08906 2.375869,0.384269 1.233924,0.484972 2.207897,1.487472 3.435976,1.987061 1.384696,0.563302 2.936615,0.43271 4.430601,0.484648 1.463517,0.05088 2.916794,0.285891 4.34018,0.630045 0.619474,0.14978 1.233942,0.320261 1.842034,0.511063 0.274651,0.947431 0.469513,1.917978 0.581848,2.897998 0.08246,0.719432 0.120428,1.447293 0.04634,2.167636 -0.05941,0.577614 -0.190943,1.147773 -0.390582,1.693036 -3.013494,0.06855 -6.028546,0.06855 -9.04204,10e-7 -1.868841,-0.04251 -3.737051,-0.111384 -5.606066,-0.145396 -3.586291,-0.06526 -7.173503,-0.0022 -10.76003,0.04847 -3.94813,0.05572 -7.896552,0.09631 -11.845075,0.09693 -7.414659,0.0012 -14.828761,-0.138591 -22.243417,-0.145395 -3.647873,-0.0033 -7.2968817,0.02552 -10.9408702,0.193858 -1.1158911,0.05155 -2.2311781,0.116177 -3.345555,0.19386 l 0.1134883,-1.185105 c 0.082585,-0.862395 0.1095475,-1.729843 0.067347,-2.595155 -0.078872,-1.61726 -0.2684798,-3.249722 0,-4.84649 0.066288,-0.394247 0.1609596,-0.78585 0.3182724,-1.15338 0.1573128,-0.367529 0.3794012,-0.711408 0.676352,-0.979075 0.287767,-0.259388 0.6432755,-0.44296 1.0213782,-0.527402 0.3781027,-0.08444 0.7779319,-0.06956 1.1487118,0.04275 z"
       id="path1171"
       inkscape:path-effect="#path-effect1173"
       inkscape:original-d="m 6.0950768,30.514372 c 0.7231151,-0.161683 4.0390272,-0.290657 6.0581682,-0.436183 2.01914,-0.145528 4.219867,-0.710686 6.329429,-1.066228 2.109561,-0.355543 3.918465,0.193992 5.877327,0.290789 1.958861,0.0968 5.726874,0.710951 8.58994,1.066227 2.863063,0.355277 8.258646,-0.03218 12.387597,-0.04847 4.128951,-0.01629 8.077805,0.387853 12.116335,0.58158 4.03853,0.193727 3.195102,0.161683 4.792282,0.242324 1.597179,0.08064 2.2909,1.324839 3.435976,1.987061 1.145075,0.66222 2.953983,0.323231 4.430601,0.484648 1.476617,0.161417 2.893702,0.420162 4.34018,0.630045 1.446477,0.209881 1.842034,0.511063 1.842034,0.511063 0,0 0.642408,1.864214 0.581848,2.897998 -0.06053,1.033785 -0.164396,1.473104 0.04634,2.167636 0.210733,0.694529 -0.390582,1.693036 -0.390582,1.693036 0,0 -6.630583,0.03244 -9.04204,10e-7 -2.411459,-0.03244 -3.285027,-0.193728 -5.606066,-0.145396 -2.321039,0.04833 -7.173106,0.03244 -10.76003,0.04847 -3.586924,0.01602 -8.228008,0.161682 -11.845075,0.09693 -3.617059,-0.06475 -14.187271,-0.508605 -22.243417,-0.145395 -6.088556,0.274501 -7.7759072,0.290921 -10.9408702,0.193858 -3.1649629,-0.09706 -3.345555,0.19386 -3.345555,0.19386 l 0.1134883,-1.185105 c 0,0 0.1580156,-1.593414 0.067347,-2.595155 -0.090669,-1.001741 0.1208089,-3.295481 0,-4.84649 -0.1208089,-1.55101 0.663331,-1.421504 0.9946244,-2.132455 0.3312934,-0.710952 1.4469748,-0.322967 2.17009,-0.48465 z"
       sodipodi:nodetypes="ssssssssssscsscssssssccsssss" />
    <path
       style="fill:none;stroke:#000000;stroke-width:0.114088;stroke-linecap:butt;stroke-linejoin:miter;stroke-miterlimit:4;stroke-dasharray:none;stroke-opacity:1"
       d="m 44.793692,29.116084 -0.200016,-13.634401 1.066749,0.566711 v 13.201034 z"
       id="path3358" />
    <path
       style="fill:none;stroke:#000000;stroke-width:0.114088;stroke-linecap:butt;stroke-linejoin:miter;stroke-miterlimit:4;stroke-dasharray:none;stroke-opacity:1"
       d="m 55.961233,18.315238 -10.234136,-0.333359 0.03334,0.800063 9.967447,0.233351 z"
       id="path3360" />
    <path
       style="fill:none;stroke:#000000;stroke-width:0.114088;stroke-linecap:butt;stroke-linejoin:miter;stroke-miterlimit:4;stroke-dasharray:none;stroke-opacity:1"
       d="m 54.969651,19.098044 0.05893,6.505891"
       id="path3362" />
    <path
       style="fill:none;stroke:#000000;stroke-width:0.182943px;stroke-linecap:butt;stroke-linejoin:miter;stroke-opacity:1"
       d="m 55.028581,25.603935 c 0.08374,-0.0083 0.169451,0.0039 0.247506,0.03536 0.101972,0.04108 0.189692,0.114454 0.253555,0.203941 0.06386,0.08949 0.104365,0.194617 0.123598,0.302859 0.02375,0.133646 0.01527,0.27345 -0.02872,0.401864 -0.04399,0.128415 -0.123872,0.244959 -0.230569,0.32887 -0.163464,0.128555 -0.385512,0.174476 -0.589676,0.134932 -0.204164,-0.03954 -0.388901,-0.160642 -0.518212,-0.323509 -0.0997,-0.125577 -0.168341,-0.27702 -0.188576,-0.436083 -0.01351,-0.106225 -0.0054,-0.215148 0.02357,-0.318223"
       id="path3477"
       inkscape:path-effect="#path-effect3479"
       inkscape:original-d="m 55.028581,25.603935 c 0.08268,0.01197 0.165187,0.02376 0.247506,0.03536 0.08232,0.0116 0.251619,0.33805 0.377153,0.5068 0.125535,0.168749 -0.172679,0.487338 -0.259292,0.730734 -0.08662,0.243395 -0.738409,-0.125534 -1.107888,-0.188577 -0.369478,-0.06304 -0.125534,-0.290538 -0.188576,-0.436083 -0.06304,-0.145544 0.0159,-0.211965 0.02357,-0.318223" />
    <path
       style="fill:none;stroke:#000000;stroke-width:0.114088;stroke-linecap:butt;stroke-linejoin:miter;stroke-miterlimit:4;stroke-dasharray:none;stroke-opacity:1"
       d="m 45.660425,29.249428 -0.850066,-1.433446 0.883402,-1.933485 -0.916737,-1.833477 0.866733,-2.283512 -1.000078,-2.000156 1.116752,-0.98341 -1.083415,-1.48345 0.983409,-1.250098"
       id="path3594" />
    <path
       style="fill:none;stroke:#000000;stroke-width:0.114088;stroke-linecap:butt;stroke-linejoin:miter;stroke-miterlimit:4;stroke-dasharray:none;stroke-opacity:1"
       d="m 55.961233,18.315238 -0.991582,0.782806 -1.096101,-0.895739 -1.390754,0.660018 -1.390752,-0.777879 -1.272892,0.777879 -1.508612,-0.872166 -1.390751,0.777878 -1.192692,-0.786156"
       id="path3709" />
    <rect
       style="fill:#000000;fill-opacity:1;stroke:none;stroke-width:0.114088;stroke-miterlimit:4;stroke-dasharray:none"
       id="rect3813"
       width="5.1337347"
       height="2.0334926"
       x="42.426842"
       y="28.949404" />
    <rect
       style="fill:#000000;fill-opacity:1;stroke:none;stroke-width:0.114088;stroke-miterlimit:4;stroke-dasharray:none"
       id="rect4783"
       width="1.0000782"
       height="0.83339858"
       x="46.527161"
       y="30.982899" />
    <rect
       style="fill:#000000;fill-opacity:1;stroke:none;stroke-width:0.114088;stroke-miterlimit:4;stroke-dasharray:none"
       id="rect4785"
       width="0.933406"
       height="0.83340001"
       x="42.426842"
       y="30.982895" />
    <rect
       style="fill:#c8c8c8;fill-opacity:1;stroke:#000000;stroke-width:0.165;stroke-miterlimit:4;stroke-dasharray:none;stroke-opacity:1"
       id="rect5184"
       width="9.2567644"
       height="6.7497244"
       x="16.199339"
       y="32.495102" />
    <rect
       style="display:inline;fill:#c8c8c8;fill-opacity:1;stroke:#000000;stroke-width:0.165;stroke-miterlimit:4;stroke-dasharray:none;stroke-opacity:1"
       id="rect5184-4"
       width="9.2567644"
       height="6.7497244"
       x="18.899229"
       y="28.348843" />
    <rect
       style="display:inline;fill:#c8c8c8;fill-opacity:1;stroke:#000000;stroke-width:0.165;stroke-miterlimit:4;stroke-dasharray:none;stroke-opacity:1"
       id="rect5184-3"
       width="9.2567644"
       height="6.7497244"
       x="25.456104"
       y="32.495102" />
    <rect
       style="display:inline;fill:#c8c8c8;fill-opacity:1;stroke:#000000;stroke-width:0.165;stroke-miterlimit:4;stroke-dasharray:none;stroke-opacity:1"
       id="rect5184-7"
       width="9.2567644"
       height="6.7497244"
       x="28.155994"
       y="28.348843" />
    <rect
       style="display:inline;fill:#c8c8c8;fill-opacity:1;stroke:#000000;stroke-width:0.165;stroke-miterlimit:4;stroke-dasharray:none;stroke-opacity:1"
       id="rect5184-6"
       width="9.2567644"
       height="6.7497244"
       x="6.9425735"
       y="32.495102" />
    <text
       xml:space="preserve"
       style="font-size:3.175px;line-height:1.25;font-family:sans-serif;stroke-width:0.264583"
       x="8.5450115"
       y="36.334915"
       id="text7183"><tspan
         sodipodi:role="line"
         id="tspan7181"
         style="stroke-width:0.264583"
         x="8.5450115"
         y="36.334915">app</tspan></text>
    <text
       xml:space="preserve"
       style="font-size:2.11914px;line-height:1.25;font-family:sans-serif;display:inline;stroke-width:0.176595"
       x="28.979267"
       y="32.48954"
       id="text7183-2"><tspan
         sodipodi:role="line"
         id="tspan7181-4"
         style="stroke-width:0.176595"
         x="28.979267"
         y="32.48954">worker</tspan></text>
    <text
       xml:space="preserve"
       style="font-size:1.59121px;line-height:1.25;font-family:sans-serif;display:inline;stroke-width:0.132601"
       x="26.0182"
       y="36.995525"
       id="text7183-2-1"><tspan
         sodipodi:role="line"
         id="tspan7181-4-4"
         style="stroke-width:0.132601"
         x="26.0182"
         y="36.995525">routeLimb</tspan></text>
    <text
       xml:space="preserve"
       style="font-size:1.80944px;line-height:1.25;font-family:sans-serif;display:inline;stroke-width:0.150786"
       x="20.399103"
       y="32.202808"
       id="text7183-8"><tspan
         sodipodi:role="line"
         id="tspan7181-7"
         style="stroke-width:0.150786"
         x="20.399103"
         y="32.202808">php 8.*</tspan></text>
    <text
       xml:space="preserve"
       style="font-size:1.80944px;line-height:1.25;font-family:sans-serif;display:inline;stroke-width:0.150786"
       x="17.447998"
       y="37.044834"
       id="text7183-8-3"><tspan
         sodipodi:role="line"
         id="tspan7181-7-4"
         style="stroke-width:0.150786"
         x="17.447998"
         y="37.044834">mysqli 8</tspan></text>
  </g>
  <g
     inkscape:label="Слой 1"
     inkscape:groupmode="layer"
     id="layer1"
     transform="translate(-33.922031,-136.31714)"
     style="display:inline">
    <path
       id="path846-2"
       style="display:inline;fill:#a7a2ff;stroke:none;stroke-width:0.0174532;stroke-linecap:round;stroke-linejoin:round"
       d="m 101.83195,156.62232 a 2.5055938,2.5055938 0 0 0 -2.454969,2.55522 2.5055938,2.5055938 0 0 0 2.555279,2.45492 2.5055938,2.5055938 0 0 0 2.45491,-2.55523 2.5055938,2.5055938 0 0 0 -2.55522,-2.45491 z m -0.007,0.53703 a 2.003461,2.0034611 88.853021 0 1 2.04314,1.96294 2.003461,2.0034611 88.853021 0 1 -1.96295,2.04314 2.003461,2.0034611 88.853021 0 1 -2.043136,-1.96294 2.003461,2.0034611 88.853021 0 1 1.962946,-2.04314 z" />
    <path
       style="display:inline;fill:#00066c;fill-opacity:1;stroke:none;stroke-width:0.0165946;stroke-linecap:butt;stroke-linejoin:miter;stroke-miterlimit:4;stroke-dasharray:none;stroke-opacity:1"
       d="m 101.54001,159.27054 c -0.18977,-0.32463 -0.39007,-0.64312 -0.60046,-0.95478 -0.17285,-0.25605 -0.35571,-0.51095 -0.59617,-0.70491 -0.2142,-0.17278 -0.469345,-0.29212 -0.736295,-0.359 -0.287808,-0.0721 -0.59091,-0.0839 -0.882904,-0.0313 -0.308387,0.0556 -0.604575,0.18391 -0.850188,0.37851 -0.211694,0.16772 -0.383783,0.38234 -0.517627,0.61693 -0.132103,0.23154 -0.228562,0.48546 -0.263765,0.7497 -0.0425,0.31899 0.0058,0.64754 0.123122,0.94721 0.120266,0.3072 0.313302,0.58618 0.561386,0.80364 0.253226,0.22196 0.563959,0.37907 0.894242,0.44468 0.24884,0.0494 0.506909,0.0472 0.756738,0.003 0.245569,-0.0434 0.483958,-0.12716 0.702711,-0.24689 0.0585,0.0601 0.12104,0.11623 0.18717,0.1678 0.0642,0.05 0.13165,0.0958 0.20187,0.13688 -0.0347,0.0204 -0.069,0.0416 -0.10289,0.0633 -0.059,0.0378 -0.1168,0.0777 -0.17853,0.11079 -0.0961,0.0516 -0.20014,0.0861 -0.303954,0.11943 -0.17704,0.0568 -0.355767,0.11066 -0.539439,0.13947 -0.392711,0.0616 -0.79907,0.006 -1.172836,-0.12969 -0.29375,-0.10636 -0.570809,-0.2621 -0.805867,-0.46789 -0.207933,-0.18204 -0.381609,-0.40196 -0.518327,-0.64214 -0.142339,-0.25005 -0.245229,-0.52301 -0.297973,-0.80586 -0.06943,-0.37236 -0.05095,-0.76051 0.05099,-1.12531 0.09555,-0.34192 0.264252,-0.66342 0.492877,-0.93503 0.27374,-0.3252 0.632035,-0.57688 1.026873,-0.73434 0.273584,-0.10911 0.565817,-0.17387 0.860299,-0.17958 0.329681,-0.006 0.659044,0.0613 0.965588,0.18285 0.214269,0.0849 0.418629,0.19634 0.601059,0.3372 0.2671,0.20625 0.48246,0.47137 0.68271,0.743 0.19661,0.26669 0.38125,0.54222 0.55316,0.82547 l -0.29358,0.54664 z"
       id="path4560-4"
       inkscape:path-effect="#path-effect14665"
       inkscape:original-d="m 101.54001,159.27054 c 0,0 -0.40212,-0.63807 -0.60046,-0.95478 -0.19835,-0.31669 -0.39742,-0.46991 -0.59617,-0.70491 -0.19876,-0.235 -0.490838,-0.23931 -0.736295,-0.359 -0.245457,-0.1197 -0.588574,-0.0208 -0.882904,-0.0313 -0.294328,-0.0105 -0.566765,0.25237 -0.850188,0.37851 -0.283425,0.12614 -0.345058,0.41131 -0.517627,0.61693 -0.172569,0.20562 -0.175816,0.49982 -0.263765,0.7497 -0.08795,0.24987 0.08211,0.6315 0.123122,0.94721 0.04102,0.31571 0.374284,0.53578 0.561386,0.80364 0.187101,0.26785 0.596188,0.29648 0.894242,0.44468 0.298053,0.1482 0.504519,0.002 0.756738,0.003 0.252219,7.7e-4 0.702711,-0.24689 0.702711,-0.24689 0,0 0.12481,0.1119 0.18717,0.1678 0.0624,0.0559 0.20187,0.13688 0.20187,0.13688 0,0 -0.0686,0.0422 -0.10289,0.0633 -0.0343,0.0211 -0.11899,0.0739 -0.17853,0.11079 -0.0595,0.0369 -0.20261,0.0796 -0.303954,0.11943 -0.101344,0.0398 -0.359599,0.093 -0.539439,0.13947 -0.179841,0.0464 -0.781864,-0.0864 -1.172836,-0.12969 -0.390974,-0.0433 -0.537218,-0.31191 -0.805867,-0.46789 -0.26865,-0.15599 -0.345525,-0.42807 -0.518327,-0.64214 -0.172803,-0.21408 -0.198622,-0.53721 -0.297973,-0.80586 -0.09935,-0.26863 0.03402,-0.75017 0.05099,-1.12531 0.01697,-0.37512 0.328612,-0.62332 0.492877,-0.93503 0.164266,-0.3117 0.684609,-0.48953 1.026873,-0.73434 0.342263,-0.2448 0.573561,-0.11969 0.860299,-0.17958 0.28674,-0.0599 0.643753,0.12193 0.965588,0.18285 0.321829,0.0609 0.400729,0.22483 0.601059,0.3372 0.20033,0.11238 0.45517,0.49536 0.68271,0.743 0.22754,0.24765 0.55316,0.82547 0.55316,0.82547 0,0 -0.36302,0.34422 -0.29358,0.54664 z"
       sodipodi:nodetypes="sssssssssssccscssssssssssssssscs" />
    <path
       style="display:inline;fill:#a7a2ff;fill-opacity:1;stroke:none;stroke-width:0.0165946;stroke-linecap:butt;stroke-linejoin:miter;stroke-miterlimit:4;stroke-dasharray:none;stroke-opacity:1"
       d="m 102.34509,157.21541 c 0.0622,0.0125 0.12351,0.0295 0.18327,0.0508 0.0633,0.0226 0.12483,0.05 0.1857,0.0786 0.0596,0.028 0.11867,0.0571 0.17716,0.0874 -0.004,0.0182 -0.008,0.0364 -0.0119,0.0544 -0.0249,0.10283 -0.0625,0.20205 -0.10012,0.30094 -0.12876,0.33884 -0.258,0.67825 -0.41966,1.00269 -0.12195,0.24474 -0.26186,0.48001 -0.3994,0.71634 -0.13556,0.23293 -0.28508,0.45774 -0.45674,0.6655 l -0.61333,0.74228 c -0.0832,-0.0506 -0.16387,-0.10541 -0.24157,-0.16412 -0.054,-0.0408 -0.10656,-0.0835 -0.15757,-0.12794 0.0116,-0.0109 0.0228,-0.0221 0.0338,-0.0336 0.0293,-0.0307 0.0563,-0.0633 0.084,-0.0954 0.0808,-0.0936 0.16698,-0.18233 0.24793,-0.27574 0.10932,-0.12615 0.20876,-0.26049 0.30617,-0.39604 0.13009,-0.18102 0.2569,-0.36464 0.37166,-0.55575 0.13595,-0.2264 0.25469,-0.46286 0.36127,-0.70448 0.17396,-0.39438 0.31577,-0.80313 0.41962,-1.22148 0.0103,-0.0414 0.0202,-0.0829 0.0297,-0.1244 z"
       id="path9194-0"
       inkscape:path-effect="#path-effect14669"
       inkscape:original-d="m 102.34509,157.21541 c 0,0 0.12221,0.0339 0.18327,0.0508 0.0611,0.0169 0.12383,0.0524 0.1857,0.0786 0.0619,0.0262 0.17716,0.0874 0.17716,0.0874 0,0 -0.008,0.0363 -0.0119,0.0544 -0.004,0.0181 -0.0667,0.20066 -0.10012,0.30094 -0.0334,0.10029 -0.27975,0.66848 -0.41966,1.00269 -0.13991,0.3342 -0.26624,0.47759 -0.3994,0.71634 -0.13316,0.23875 -0.45674,0.6655 -0.45674,0.6655 l -0.61333,0.74228 c 0,0 -0.16102,-0.10939 -0.24157,-0.16412 -0.0806,-0.0548 -0.15757,-0.12794 -0.15757,-0.12794 0,0 0.0226,-0.0224 0.0338,-0.0336 0.0112,-0.0112 0.056,-0.0636 0.084,-0.0954 0.028,-0.0319 0.16531,-0.1838 0.24793,-0.27574 0.0826,-0.0919 0.20414,-0.264 0.30617,-0.39604 0.10202,-0.13204 0.2478,-0.37047 0.37166,-0.55575 0.12386,-0.18527 0.24087,-0.46963 0.36127,-0.70448 0.1204,-0.23486 0.27977,-0.81429 0.41962,-1.22148 0.13984,-0.40718 0.0297,-0.1244 0.0297,-0.1244 z"
       sodipodi:nodetypes="csscssssccscsssssssc" />
    <path
       style="display:inline;fill:#00066c;fill-opacity:1;stroke:none;stroke-width:0.02661px;stroke-linecap:butt;stroke-linejoin:miter;stroke-opacity:1"
       d="m 102.13359,159.19864 c 0.16983,0.28574 0.32825,0.57825 0.47477,0.87661 0.12607,0.25673 0.24333,0.51779 0.3515,0.78256 -0.0558,0.0355 -0.11305,0.0688 -0.17147,0.0999 -0.0642,0.0342 -0.13001,0.0656 -0.19806,0.0913 -0.0526,0.0199 -0.10659,0.0363 -0.16138,0.0492 -0.004,-0.0114 -0.008,-0.0229 -0.0122,-0.0342 -0.0155,-0.0417 -0.0329,-0.0828 -0.05,-0.12384 -0.0301,-0.0722 -0.0594,-0.14469 -0.0886,-0.21725 -0.0988,-0.24567 -0.20772,-0.48727 -0.33378,-0.72013 l -0.14315,-0.26442 c 0.0552,-0.0861 0.10961,-0.17276 0.16329,-0.25984 0.0572,-0.0928 0.11353,-0.18606 0.16901,-0.27986 z"
       id="path12664-3"
       inkscape:path-effect="#path-effect14673"
       inkscape:original-d="m 102.13359,159.19864 c 0,0 0.31654,0.58443 0.47477,0.87661 0.15823,0.29216 0.3515,0.78256 0.3515,0.78256 0,0 -0.11429,0.0666 -0.17147,0.0999 -0.0572,0.0333 -0.13201,0.0609 -0.19806,0.0913 -0.066,0.0304 -0.16138,0.0492 -0.16138,0.0492 0,0 -0.008,-0.0228 -0.0122,-0.0342 -0.004,-0.0114 -0.0333,-0.0825 -0.05,-0.12384 -0.0167,-0.0413 -0.059,-0.14481 -0.0886,-0.21725 -0.0296,-0.0724 -0.33378,-0.72013 -0.33378,-0.72013 l -0.14315,-0.26442 c 0,0 0.10888,-0.17319 0.16329,-0.25984 0.0544,-0.0866 0.16901,-0.27986 0.16901,-0.27986 z"
       sodipodi:nodetypes="cscsscsssccsc" />
  </g>
</svg>
