<?xml version="1.0" encoding="UTF-8" standalone="no"?>
<!-- Created with Inkscape (http://www.inkscape.org/) -->

<svg
   width="74.853317mm"
   height="26.705603mm"
   viewBox="0 0 74.853316 26.705603"
   version="1.1"
   id="svg31125"
   inkscape:version="1.1 (c68e22c387, 2021-05-23)"
   sodipodi:docname="шь.svg"
   xmlns:inkscape="http://www.inkscape.org/namespaces/inkscape"
   xmlns:sodipodi="http://sodipodi.sourceforge.net/DTD/sodipodi-0.dtd"
   xmlns="http://www.w3.org/2000/svg"
   xmlns:svg="http://www.w3.org/2000/svg">
  <sodipodi:namedview
     id="namedview31127"
     pagecolor="#ffffff"
     bordercolor="#666666"
     borderopacity="1.0"
     inkscape:pageshadow="2"
     inkscape:pageopacity="0.0"
     inkscape:pagecheckerboard="0"
     inkscape:document-units="mm"
     showgrid="false"
     inkscape:zoom="2.520627"
     inkscape:cx="171.78266"
     inkscape:cy="104.53748"
     inkscape:window-width="1920"
     inkscape:window-height="1051"
     inkscape:window-x="-9"
     inkscape:window-y="-9"
     inkscape:window-maximized="1"
     inkscape:current-layer="layer1" />
  <defs
     id="defs31122">
    <inkscape:perspective
       sodipodi:type="inkscape:persp3d"
       inkscape:vp_x="0 : 13.352801 : 1"
       inkscape:vp_y="0 : 1000 : 0"
       inkscape:vp_z="74.853316 : 13.352801 : 1"
       inkscape:persp3d-origin="37.426658 : 8.9018677 : 1"
       id="perspective973" />
    <inkscape:path-effect
       effect="spiro"
       id="path-effect22369"
       is_visible="true"
       lpeversion="1" />
    <inkscape:path-effect
       effect="spiro"
       id="path-effect22252"
       is_visible="true"
       lpeversion="1" />
    <inkscape:path-effect
       effect="spiro"
       id="path-effect21477"
       is_visible="true"
       lpeversion="1" />
    <inkscape:path-effect
       effect="spiro"
       id="path-effect5010"
       is_visible="true"
       lpeversion="1" />
    <inkscape:path-effect
       effect="spiro"
       id="path-effect4080"
       is_visible="true"
       lpeversion="1" />
    <inkscape:path-effect
       effect="spiro"
       id="path-effect3576"
       is_visible="true"
       lpeversion="1" />
    <inkscape:path-effect
       effect="spiro"
       id="path-effect3539"
       is_visible="true"
       lpeversion="1" />
    <inkscape:path-effect
       effect="spiro"
       id="path-effect2979"
       is_visible="true"
       lpeversion="1" />
    <inkscape:path-effect
       effect="spiro"
       id="path-effect2975"
       is_visible="true"
       lpeversion="1" />
    <inkscape:path-effect
       effect="spiro"
       id="path-effect2431"
       is_visible="true"
       lpeversion="1" />
    <inkscape:path-effect
       effect="spiro"
       id="path-effect2115"
       is_visible="true"
       lpeversion="1" />
    <inkscape:path-effect
       effect="spiro"
       id="path-effect3479"
       is_visible="true"
       lpeversion="1" />
    <inkscape:path-effect
       effect="spiro"
       id="path-effect1173"
       is_visible="true"
       lpeversion="1" />
    <inkscape:path-effect
       effect="spiro"
       id="path-effect1136"
       is_visible="true"
       lpeversion="1" />
    <inkscape:path-effect
       effect="spiro"
       id="path-effect14657"
       is_visible="true"
       lpeversion="1" />
    <inkscape:path-effect
       effect="spiro"
       id="path-effect14661"
       is_visible="true"
       lpeversion="1" />
    <inkscape:path-effect
       effect="spiro"
       id="path-effect14665"
       is_visible="true"
       lpeversion="1" />
    <inkscape:path-effect
       effect="spiro"
       id="path-effect14669"
       is_visible="true"
       lpeversion="1" />
    <inkscape:path-effect
       effect="spiro"
       id="path-effect14673"
       is_visible="true"
       lpeversion="1" />
  </defs>
  <g
     inkscape:groupmode="layer"
     id="layer3"
     inkscape:label="Слой 3"
     transform="translate(-2.2763226,-15.14673)">
    <text
       xml:space="preserve"
       style="font-size:14.1111px;line-height:1.25;font-family:sans-serif;stroke-width:0.264583"
       x="8.4086475"
       y="35.789455"
       id="text2691"><tspan
         sodipodi:role="line"
         id="tspan2689"
         style="stroke-width:0.264583"
         x="8.4086475"
         y="35.789455" /></text>
    <text
       xml:space="preserve"
       style="font-size:5.64444px;line-height:1.25;font-family:Romantic;-inkscape-font-specification:Romantic;stroke-width:0.264583"
       x="22.924355"
       y="24.298925"
       id="text10485"><tspan
         sodipodi:role="line"
         id="tspan10483"
         style="font-style:normal;font-variant:normal;font-weight:normal;font-stretch:normal;font-family:'BankGothic Lt BT';-inkscape-font-specification:'BankGothic Lt BT';stroke-width:0.264583"
         x="22.924355"
         y="24.298925">user |</tspan></text>
    <text
       xml:space="preserve"
       style="font-size:5.64444px;line-height:1.25;font-family:Romantic;-inkscape-font-specification:Romantic;stroke-width:0.264583"
       x="36.171421"
       y="30.491913"
       id="text10485-2"><tspan
         sodipodi:role="line"
         id="tspan10483-1"
         style="font-style:normal;font-variant:normal;font-weight:normal;font-stretch:normal;font-family:'BankGothic Lt BT';-inkscape-font-specification:'BankGothic Lt BT';stroke-width:0.264583"
         x="36.171421"
         y="30.491913">??????</tspan></text>
    <text
       xml:space="preserve"
       style="font-size:5.64444px;line-height:1.25;font-family:Romantic;-inkscape-font-specification:Romantic;stroke-width:0.264583"
       x="20.955559"
       y="37.581226"
       id="text10485-2-4"><tspan
         sodipodi:role="line"
         id="tspan10483-1-4"
         style="font-style:normal;font-variant:normal;font-weight:normal;font-stretch:normal;font-family:'BankGothic Lt BT';-inkscape-font-specification:'BankGothic Lt BT';stroke-width:0.264583"
         x="20.955559"
         y="37.581226">image ... 1</tspan></text>
  </g>
  <g
     inkscape:groupmode="layer"
     id="layer2"
     inkscape:label="Слой 2"
     style="display:inline"
     transform="translate(-2.2763226,-15.14673)" />
  <g
     inkscape:label="Слой 1"
     inkscape:groupmode="layer"
     id="layer1"
     transform="translate(-33.641682,-136.43164)"
     style="display:inline">
    <path
       id="path846-2"
       style="display:inline;fill:#a7a2ff;stroke:none;stroke-width:0.0174532;stroke-linecap:round;stroke-linejoin:round"
       d="m 101.83195,156.62232 a 2.5055938,2.5055938 0 0 0 -2.454969,2.55522 2.5055938,2.5055938 0 0 0 2.555279,2.45492 2.5055938,2.5055938 0 0 0 2.45491,-2.55523 2.5055938,2.5055938 0 0 0 -2.55522,-2.45491 z m -0.007,0.53703 a 2.003461,2.0034611 88.853021 0 1 2.04314,1.96294 2.003461,2.0034611 88.853021 0 1 -1.96295,2.04314 2.003461,2.0034611 88.853021 0 1 -2.043136,-1.96294 2.003461,2.0034611 88.853021 0 1 1.962946,-2.04314 z" />
    <path
       style="display:inline;fill:#00066c;fill-opacity:1;stroke:none;stroke-width:0.0165946;stroke-linecap:butt;stroke-linejoin:miter;stroke-miterlimit:4;stroke-dasharray:none;stroke-opacity:1"
       d="m 101.54001,159.27054 c -0.18977,-0.32463 -0.39007,-0.64312 -0.60046,-0.95478 -0.17285,-0.25605 -0.35571,-0.51095 -0.59617,-0.70491 -0.2142,-0.17278 -0.469345,-0.29212 -0.736295,-0.359 -0.287808,-0.0721 -0.59091,-0.0839 -0.882904,-0.0313 -0.308387,0.0556 -0.604575,0.18391 -0.850188,0.37851 -0.211694,0.16772 -0.383783,0.38234 -0.517627,0.61693 -0.132103,0.23154 -0.228562,0.48546 -0.263765,0.7497 -0.0425,0.31899 0.0058,0.64754 0.123122,0.94721 0.120266,0.3072 0.313302,0.58618 0.561386,0.80364 0.253226,0.22196 0.563959,0.37907 0.894242,0.44468 0.24884,0.0494 0.506909,0.0472 0.756738,0.003 0.245569,-0.0434 0.483958,-0.12716 0.702711,-0.24689 0.0585,0.0601 0.12104,0.11623 0.18717,0.1678 0.0642,0.05 0.13165,0.0958 0.20187,0.13688 -0.0347,0.0204 -0.069,0.0416 -0.10289,0.0633 -0.059,0.0378 -0.1168,0.0777 -0.17853,0.11079 -0.0961,0.0516 -0.20014,0.0861 -0.303954,0.11943 -0.17704,0.0568 -0.355767,0.11066 -0.539439,0.13947 -0.392711,0.0616 -0.79907,0.006 -1.172836,-0.12969 -0.29375,-0.10636 -0.570809,-0.2621 -0.805867,-0.46789 -0.207933,-0.18204 -0.381609,-0.40196 -0.518327,-0.64214 -0.142339,-0.25005 -0.245229,-0.52301 -0.297973,-0.80586 -0.06943,-0.37236 -0.05095,-0.76051 0.05099,-1.12531 0.09555,-0.34192 0.264252,-0.66342 0.492877,-0.93503 0.27374,-0.3252 0.632035,-0.57688 1.026873,-0.73434 0.273584,-0.10911 0.565817,-0.17387 0.860299,-0.17958 0.329681,-0.006 0.659044,0.0613 0.965588,0.18285 0.214269,0.0849 0.418629,0.19634 0.601059,0.3372 0.2671,0.20625 0.48246,0.47137 0.68271,0.743 0.19661,0.26669 0.38125,0.54222 0.55316,0.82547 l -0.29358,0.54664 z"
       id="path4560-4"
       inkscape:path-effect="#path-effect14665"
       inkscape:original-d="m 101.54001,159.27054 c 0,0 -0.40212,-0.63807 -0.60046,-0.95478 -0.19835,-0.31669 -0.39742,-0.46991 -0.59617,-0.70491 -0.19876,-0.235 -0.490838,-0.23931 -0.736295,-0.359 -0.245457,-0.1197 -0.588574,-0.0208 -0.882904,-0.0313 -0.294328,-0.0105 -0.566765,0.25237 -0.850188,0.37851 -0.283425,0.12614 -0.345058,0.41131 -0.517627,0.61693 -0.172569,0.20562 -0.175816,0.49982 -0.263765,0.7497 -0.08795,0.24987 0.08211,0.6315 0.123122,0.94721 0.04102,0.31571 0.374284,0.53578 0.561386,0.80364 0.187101,0.26785 0.596188,0.29648 0.894242,0.44468 0.298053,0.1482 0.504519,0.002 0.756738,0.003 0.252219,7.7e-4 0.702711,-0.24689 0.702711,-0.24689 0,0 0.12481,0.1119 0.18717,0.1678 0.0624,0.0559 0.20187,0.13688 0.20187,0.13688 0,0 -0.0686,0.0422 -0.10289,0.0633 -0.0343,0.0211 -0.11899,0.0739 -0.17853,0.11079 -0.0595,0.0369 -0.20261,0.0796 -0.303954,0.11943 -0.101344,0.0398 -0.359599,0.093 -0.539439,0.13947 -0.179841,0.0464 -0.781864,-0.0864 -1.172836,-0.12969 -0.390974,-0.0433 -0.537218,-0.31191 -0.805867,-0.46789 -0.26865,-0.15599 -0.345525,-0.42807 -0.518327,-0.64214 -0.172803,-0.21408 -0.198622,-0.53721 -0.297973,-0.80586 -0.09935,-0.26863 0.03402,-0.75017 0.05099,-1.12531 0.01697,-0.37512 0.328612,-0.62332 0.492877,-0.93503 0.164266,-0.3117 0.684609,-0.48953 1.026873,-0.73434 0.342263,-0.2448 0.573561,-0.11969 0.860299,-0.17958 0.28674,-0.0599 0.643753,0.12193 0.965588,0.18285 0.321829,0.0609 0.400729,0.22483 0.601059,0.3372 0.20033,0.11238 0.45517,0.49536 0.68271,0.743 0.22754,0.24765 0.55316,0.82547 0.55316,0.82547 0,0 -0.36302,0.34422 -0.29358,0.54664 z"
       sodipodi:nodetypes="sssssssssssccscssssssssssssssscs" />
    <path
       style="display:inline;fill:#a7a2ff;fill-opacity:1;stroke:none;stroke-width:0.0165946;stroke-linecap:butt;stroke-linejoin:miter;stroke-miterlimit:4;stroke-dasharray:none;stroke-opacity:1"
       d="m 102.34509,157.21541 c 0.0622,0.0125 0.12351,0.0295 0.18327,0.0508 0.0633,0.0226 0.12483,0.05 0.1857,0.0786 0.0596,0.028 0.11867,0.0571 0.17716,0.0874 -0.004,0.0182 -0.008,0.0364 -0.0119,0.0544 -0.0249,0.10283 -0.0625,0.20205 -0.10012,0.30094 -0.12876,0.33884 -0.258,0.67825 -0.41966,1.00269 -0.12195,0.24474 -0.26186,0.48001 -0.3994,0.71634 -0.13556,0.23293 -0.28508,0.45774 -0.45674,0.6655 l -0.61333,0.74228 c -0.0832,-0.0506 -0.16387,-0.10541 -0.24157,-0.16412 -0.054,-0.0408 -0.10656,-0.0835 -0.15757,-0.12794 0.0116,-0.0109 0.0228,-0.0221 0.0338,-0.0336 0.0293,-0.0307 0.0563,-0.0633 0.084,-0.0954 0.0808,-0.0936 0.16698,-0.18233 0.24793,-0.27574 0.10932,-0.12615 0.20876,-0.26049 0.30617,-0.39604 0.13009,-0.18102 0.2569,-0.36464 0.37166,-0.55575 0.13595,-0.2264 0.25469,-0.46286 0.36127,-0.70448 0.17396,-0.39438 0.31577,-0.80313 0.41962,-1.22148 0.0103,-0.0414 0.0202,-0.0829 0.0297,-0.1244 z"
       id="path9194-0"
       inkscape:path-effect="#path-effect14669"
       inkscape:original-d="m 102.34509,157.21541 c 0,0 0.12221,0.0339 0.18327,0.0508 0.0611,0.0169 0.12383,0.0524 0.1857,0.0786 0.0619,0.0262 0.17716,0.0874 0.17716,0.0874 0,0 -0.008,0.0363 -0.0119,0.0544 -0.004,0.0181 -0.0667,0.20066 -0.10012,0.30094 -0.0334,0.10029 -0.27975,0.66848 -0.41966,1.00269 -0.13991,0.3342 -0.26624,0.47759 -0.3994,0.71634 -0.13316,0.23875 -0.45674,0.6655 -0.45674,0.6655 l -0.61333,0.74228 c 0,0 -0.16102,-0.10939 -0.24157,-0.16412 -0.0806,-0.0548 -0.15757,-0.12794 -0.15757,-0.12794 0,0 0.0226,-0.0224 0.0338,-0.0336 0.0112,-0.0112 0.056,-0.0636 0.084,-0.0954 0.028,-0.0319 0.16531,-0.1838 0.24793,-0.27574 0.0826,-0.0919 0.20414,-0.264 0.30617,-0.39604 0.10202,-0.13204 0.2478,-0.37047 0.37166,-0.55575 0.12386,-0.18527 0.24087,-0.46963 0.36127,-0.70448 0.1204,-0.23486 0.27977,-0.81429 0.41962,-1.22148 0.13984,-0.40718 0.0297,-0.1244 0.0297,-0.1244 z"
       sodipodi:nodetypes="csscssssccscsssssssc" />
    <path
       style="display:inline;fill:#00066c;fill-opacity:1;stroke:none;stroke-width:0.02661px;stroke-linecap:butt;stroke-linejoin:miter;stroke-opacity:1"
       d="m 102.13359,159.19864 c 0.16983,0.28574 0.32825,0.57825 0.47477,0.87661 0.12607,0.25673 0.24333,0.51779 0.3515,0.78256 -0.0558,0.0355 -0.11305,0.0688 -0.17147,0.0999 -0.0642,0.0342 -0.13001,0.0656 -0.19806,0.0913 -0.0526,0.0199 -0.10659,0.0363 -0.16138,0.0492 -0.004,-0.0114 -0.008,-0.0229 -0.0122,-0.0342 -0.0155,-0.0417 -0.0329,-0.0828 -0.05,-0.12384 -0.0301,-0.0722 -0.0594,-0.14469 -0.0886,-0.21725 -0.0988,-0.24567 -0.20772,-0.48727 -0.33378,-0.72013 l -0.14315,-0.26442 c 0.0552,-0.0861 0.10961,-0.17276 0.16329,-0.25984 0.0572,-0.0928 0.11353,-0.18606 0.16901,-0.27986 z"
       id="path12664-3"
       inkscape:path-effect="#path-effect14673"
       inkscape:original-d="m 102.13359,159.19864 c 0,0 0.31654,0.58443 0.47477,0.87661 0.15823,0.29216 0.3515,0.78256 0.3515,0.78256 0,0 -0.11429,0.0666 -0.17147,0.0999 -0.0572,0.0333 -0.13201,0.0609 -0.19806,0.0913 -0.066,0.0304 -0.16138,0.0492 -0.16138,0.0492 0,0 -0.008,-0.0228 -0.0122,-0.0342 -0.004,-0.0114 -0.0333,-0.0825 -0.05,-0.12384 -0.0167,-0.0413 -0.059,-0.14481 -0.0886,-0.21725 -0.0296,-0.0724 -0.33378,-0.72013 -0.33378,-0.72013 l -0.14315,-0.26442 c 0,0 0.10888,-0.17319 0.16329,-0.25984 0.0544,-0.0866 0.16901,-0.27986 0.16901,-0.27986 z"
       sodipodi:nodetypes="cscsscsssccsc" />
    <rect
       style="display:inline;fill:#ff1300;fill-opacity:1;stroke-width:2.288;stroke-linecap:round;stroke-linejoin:round"
       id="rect1207-3-0"
       width="12.184"
       height="12.947982"
       x="37.314289"
       y="148.10677"
       ry="5.5632653" />
    <circle
       style="fill:#0058ff;fill-opacity:1;stroke:none;stroke-width:2.265;stroke-linecap:round;stroke-linejoin:round"
       id="path21724"
       cx="43.907459"
       cy="142.23279"
       r="1.0982038" />
    <rect
       style="fill:#0058ff;fill-opacity:1;stroke:none;stroke-width:2.265;stroke-linecap:round;stroke-linejoin:round"
       id="rect21748"
       width="5.3775544"
       height="3.3235116"
       x="41.161949"
       y="143.59109"
       ry="1.2427043" />
    <rect
       style="fill:#0058ff;fill-opacity:1;stroke:none;stroke-width:2.265;stroke-linecap:round;stroke-linejoin:round"
       id="rect21973"
       width="5.4043198"
       height="2.0519187"
       x="41.161949"
       y="144.86269" />
    <g
       sodipodi:type="inkscape:box3d"
       id="g975"
       style="fill:#0058ff;stroke-width:8.56063;stroke-linecap:round;stroke-linejoin:round"
       inkscape:perspectiveID="#perspective973"
       inkscape:corner0="5.6028802 : -0.009265804 : 0 : 1"
       inkscape:corner7="2.601571 : -0.020421089 : 0.25 : 1">
      <path
         sodipodi:type="inkscape:box3dside"
         id="path987"
         style="fill:#e9e9ff;fill-rule:evenodd;stroke:none;stroke-linejoin:round"
         inkscape:box3dsidetype="11"
         d="m 41.833856,151.78604 6.383694,1.55974 v 2.89629 l -6.383694,-2.8282 z"
         points="48.21755,153.34578 48.21755,156.24207 41.833856,153.41387 41.833856,151.78604 " />
      <path
         sodipodi:type="inkscape:box3dside"
         id="path977"
         style="fill:#353564;fill-rule:evenodd;stroke:none;stroke-linejoin:round"
         inkscape:box3dsidetype="6"
         d="m 39.309914,151.86183 v 1.68946 l 2.523942,-0.13742 v -1.62783 z"
         points="39.309914,153.55129 41.833856,153.41387 41.833856,151.78604 39.309914,151.86183 " />
      <path
         sodipodi:type="inkscape:box3dside"
         id="path985"
         style="fill:#afafde;fill-rule:evenodd;stroke:none;stroke-linejoin:round"
         inkscape:box3dsidetype="13"
         d="m 39.309914,153.55129 4.723528,3.13903 4.184108,-0.44825 -6.383694,-2.8282 z"
         points="44.033442,156.69032 48.21755,156.24207 41.833856,153.41387 39.309914,153.55129 " />
      <path
         sodipodi:type="inkscape:box3dside"
         id="path979"
         style="fill:#4d4d9f;fill-rule:evenodd;stroke:none;stroke-linejoin:round"
         inkscape:box3dsidetype="5"
         d="m 39.309914,151.86183 4.723528,1.73115 4.184108,-0.2472 -6.383694,-1.55974 z"
         points="44.033442,153.59298 48.21755,153.34578 41.833856,151.78604 39.309914,151.86183 " />
      <path
         sodipodi:type="inkscape:box3dside"
         id="path983"
         style="fill:#d7d7ff;fill-rule:evenodd;stroke:none;stroke-linejoin:round"
         inkscape:box3dsidetype="14"
         d="m 44.033442,153.59298 v 3.09734 l 4.184108,-0.44825 v -2.89629 z"
         points="44.033442,156.69032 48.21755,156.24207 48.21755,153.34578 44.033442,153.59298 " />
      <path
         sodipodi:type="inkscape:box3dside"
         id="path981"
         style="fill:#8686bf;fill-rule:evenodd;stroke:none;stroke-linejoin:round"
         inkscape:box3dsidetype="3"
         d="m 39.309914,151.86183 4.723528,1.73115 v 3.09734 l -4.723528,-3.13903 z"
         points="44.033442,153.59298 44.033442,156.69032 39.309914,153.55129 39.309914,151.86183 " />
    </g>
  </g>
</svg>
